<?xml version="1.0" standalone="no"?>
<!DOCTYPE svg PUBLIC "-//W3C//DTD SVG 1.1//EN" "http://www.w3.org/Graphics/SVG/1.1/DTD/svg11.dtd" >
<svg xmlns="http://www.w3.org/2000/svg" xmlns:xlink="http://www.w3.org/1999/xlink" version="1.1">
<metadata></metadata>
<defs>
<font id="drugsregular" horiz-adv-x="1300" >
<font-face units-per-em="2048" ascent="1638" descent="-410" />
<missing-glyph horiz-adv-x="471" />
<glyph horiz-adv-x="0" />
<glyph horiz-adv-x="682" />
<glyph unicode=" "  horiz-adv-x="471" />
<glyph unicode="&#x09;" horiz-adv-x="471" />
<glyph unicode="&#xa0;" horiz-adv-x="471" />
<glyph unicode="!" horiz-adv-x="552" d="M215 41q0 23 19 42t42 19t42.5 -19t19.5 -42t-19.5 -42t-42.5 -19t-42 19t-19 42zM246 696v738h61v-738l-20 -368h-21z" />
<glyph unicode="&#x22;" horiz-adv-x="696" d="M154 1167v267h61v-267l-20 -245h-21zM481 1167v267h62v-267l-21 -245h-20z" />
<glyph unicode="#" horiz-adv-x="1474" d="M41 451l10 41h318l163 491h-317l10 41h318l143 451h62l-144 -451h451l143 451h62l-144 -451h318l-11 -41h-317l-164 -491h318l-11 -41h-317l-144 -451h-61l143 451h-450l-144 -451h-61l143 451h-317zM430 492h451l163 491h-450z" />
<glyph unicode="$" horiz-adv-x="1259" d="M82 276l31 21q3 -6 9.5 -17t30 -41.5t50.5 -58.5t73.5 -62.5t97.5 -59t122.5 -41.5t148.5 -17q101 0 186.5 30t143 81t89.5 118t32 140q0 79 -51 139t-132 99t-179.5 73t-197 70t-179.5 80t-132 114.5t-51 161.5q0 65 33.5 129.5t90 116.5t140 85.5t176.5 37.5v204h41 v-204q63 0 122.5 -14t105 -36.5t86.5 -50t69 -55t48.5 -50t29.5 -36.5l10 -14l-30 -21q-6 10 -18 25.5t-54.5 56.5t-89.5 72t-123 56.5t-156 25.5q-184 0 -301.5 -99t-117.5 -229q0 -79 51 -139t132 -99t179 -73t196.5 -70t179.5 -80t132 -114.5t51 -161.5 q0 -108 -60.5 -201t-177 -151t-264.5 -58v-205h-41v205q-71 0 -138.5 17.5t-119 45.5t-97.5 61.5t-77.5 67.5t-54.5 62t-34 45z" />
<glyph unicode="%" horiz-adv-x="1699" d="M82 1126q0 152 94 250.5t234 98.5q139 0 233 -98.5t94 -250.5t-93.5 -250t-233.5 -98t-234 98t-94 250zM143 1126q0 -135 78.5 -221t188.5 -86t188 86t78 221t-78 221.5t-188 86.5t-188.5 -86.5t-78.5 -221.5zM389 0l860 1434h62l-860 -1434h-62zM963 307q0 152 93.5 250 t233.5 98t234 -98t94 -250t-94 -250t-234 -98t-233.5 98t-93.5 250zM1024 307q0 -135 78 -221t188 -86t188 86t78 221t-78 221t-188 86t-188 -86t-78 -221z" />
<glyph unicode="&#x26;" horiz-adv-x="1361" d="M102 369q0 86 37 167t89.5 135.5t105.5 96.5t90 62l37 20v10q-6 6 -16.5 17.5t-37 46t-47 69t-37 83t-16.5 91.5q0 129 105.5 218.5t283.5 89.5q74 0 141.5 -23.5t111 -56.5t75.5 -66t46 -57l15 -23l-30 -20q-5 8 -15.5 22t-46 49.5t-74 62.5t-99.5 49t-124 22 q-149 0 -238 -77.5t-89 -189.5q0 -43 17 -90.5t41 -84.5t47.5 -68t40.5 -48l17 -16l512 -543q3 5 8.5 15.5t20 44.5t25 70.5t19.5 93.5t9 114h41q0 -63 -9.5 -124t-23 -103.5t-27 -75.5t-23.5 -49l-9 -16l266 -287h-71l-226 246q-3 -6 -10 -16.5t-30 -40t-49.5 -57 t-69 -60.5t-88.5 -56.5t-107.5 -40t-126.5 -16.5q-203 0 -332 119t-129 291zM164 369q0 -156 112 -262.5t287 -106.5q61 0 118.5 15t101 39.5t82.5 54t65.5 59t46 54t28.5 39.5l9 15l-512 543q-7 -3 -19 -9t-47.5 -26.5t-67 -44.5t-70.5 -64t-67.5 -82.5t-47.5 -101.5 t-19 -122z" />
<glyph unicode="'" horiz-adv-x="368" d="M154 1167v267h61v-267l-20 -245h-21z" />
<glyph unicode="(" horiz-adv-x="737" d="M195 553q0 108 16.5 213.5t44.5 191.5t64 166t75.5 143t79.5 117t76 92.5t64 66t45 41.5l16 13l20 -30q-9 -8 -25 -23t-61.5 -67t-87 -109.5t-92.5 -149t-87.5 -187t-61.5 -222t-25 -256.5t24.5 -256t63 -223.5t85.5 -185.5t94 -150.5t85.5 -108t63.5 -67.5l24 -23 l-20 -31q-10 8 -27.5 22.5t-67.5 66.5t-95 110t-100.5 151t-95.5 192t-67.5 232t-27.5 271z" />
<glyph unicode=")" horiz-adv-x="737" d="M41 -461q9 8 25 23t61.5 67t87 109.5t92.5 149t87.5 187t61.5 222t25 256.5t-24.5 256t-63 223.5t-85.5 185.5t-94 150.5t-85.5 108t-62.5 67.5l-25 23l20 30q10 -8 27.5 -22.5t67.5 -66t95.5 -109.5t101 -151t95.5 -192t67.5 -232t27.5 -271t-26.5 -270t-69 -233 t-94 -191.5t-103 -153t-94 -108t-68.5 -67.5l-27 -22z" />
<glyph unicode="*" horiz-adv-x="870" d="M102 1157l11 51l297 -92v318h51v-318l297 92l10 -51l-287 -92l195 -266l-41 -31l-195 268h-10l-194 -268l-41 31l194 266z" />
<glyph unicode="+" horiz-adv-x="1054" d="M82 696v52h420v430h51v-430h420v-52h-420v-430h-51v430h-420z" />
<glyph unicode="," horiz-adv-x="389" d="M82 -195q5 3 12.5 8.5t27 23.5t34.5 37.5t27 48t12 57.5q-23 0 -42.5 19t-19.5 42t19.5 42t42.5 19q24 0 42.5 -20.5t18.5 -50.5q0 -49 -16 -93t-38.5 -72.5t-45 -50t-38.5 -31.5l-16 -9z" />
<glyph unicode="-" horiz-adv-x="1003" d="M82 696v52h840v-52h-840z" />
<glyph unicode="." horiz-adv-x="389" d="M133 41q0 23 19.5 42t42.5 19t42 -19t19 -42t-19 -42t-42 -19t-42.5 19t-19.5 42z" />
<glyph unicode="/" horiz-adv-x="849" d="M82 -102l635 1638h51l-635 -1638h-51z" />
<glyph unicode="0" horiz-adv-x="1474" d="M133 717q0 172 49.5 316.5t133.5 240t193 148.5t228 53t228 -53t193 -148.5t133.5 -240t49.5 -316.5t-49.5 -316.5t-133.5 -240t-193 -148.5t-228 -53t-228 53t-193 148.5t-133.5 240t-49.5 316.5zM195 717q0 -164 46 -301.5t122 -227t173 -139t201 -49.5t201.5 49.5 t173.5 139t122 227t46 301.5t-46 301.5t-122 227t-173.5 139t-201.5 49.5t-201 -49.5t-173 -139t-122 -227t-46 -301.5z" />
<glyph unicode="1" horiz-adv-x="747" d="M82 1126l389 308h41v-1434h-61v1341h-11l-327 -256z" />
<glyph unicode="2" horiz-adv-x="1187" d="M82 0v41q19 12 51 33.5t124.5 90t176.5 138t187 169.5t177 193.5t124.5 200.5t50.5 199q0 157 -116 263t-304 106q-80 0 -155 -24.5t-124.5 -59t-87.5 -69t-56 -59.5l-17 -24l-31 21q7 10 19.5 27.5t57.5 61.5t95.5 78t131.5 61.5t167 27.5q217 0 349 -118t132 -292 q0 -72 -29 -153t-78.5 -157t-113 -153t-134 -145.5t-141 -131t-134 -112t-113 -86.5t-78.5 -57l-29 -19v-10h901l-10 -41h-993z" />
<glyph unicode="3" horiz-adv-x="1177" d="M61 215l31 21q6 -10 18.5 -25.5t55.5 -56.5t92 -72t129 -56.5t166 -25.5q211 0 336 113t125 286t-125.5 286.5t-335.5 113.5q-36 0 -74.5 -7.5t-58.5 -15.5l-21 -8l-20 39l584 575v11h-840v41h901v-52l-553 -542v-11q41 11 82 11q240 0 381 -125.5t141 -315.5t-141 -315 t-381 -125q-92 0 -176.5 26.5t-139.5 64t-96.5 75t-60.5 63.5z" />
<glyph unicode="4" horiz-adv-x="1290" d="M82 410v51l840 973h61v-983h266l-10 -41h-256v-410h-61v410h-840zM143 451h779v901h-11l-768 -891v-10z" />
<glyph unicode="5" horiz-adv-x="1218" d="M102 215l31 21q6 -10 18.5 -25.5t55.5 -56.5t92 -72t129 -56.5t166 -25.5q205 0 333 121.5t128 308.5t-128 308.5t-333 121.5q-60 0 -118 -10.5t-98 -25.5t-71 -30t-46 -26l-15 -10l-41 20l102 656h758l-10 -41h-697l-82 -564h11q4 3 12 8t37 17t61.5 21.5t86 17.5 t110.5 8q234 0 378 -134t144 -337t-144 -337t-378 -134q-92 0 -176.5 26.5t-139.5 64t-96.5 75t-60.5 63.5z" />
<glyph unicode="6" horiz-adv-x="1259" d="M133 614q0 352 226 580.5t602 259.5l12 -33q-367 -52 -565 -243.5t-213 -501.5h10q7 9 20.5 24t59 54t95.5 68.5t128 54t158 24.5q214 0 352.5 -135t138.5 -336t-138.5 -336t-352.5 -135q-112 0 -208.5 44t-169 125.5t-114 206.5t-41.5 279zM195 594q0 -138 37.5 -252 t102 -188t149.5 -114t182 -40q184 0 307 123t123 307t-123 307t-307 123q-59 0 -116.5 -14t-102.5 -36.5t-86.5 -50t-71 -55t-51 -50t-32.5 -36.5l-11 -14v-10z" />
<glyph unicode="7" horiz-adv-x="1085" d="M61 1393v41h943v-41l-635 -1393h-62l635 1382v11h-881z" />
<glyph unicode="8" horiz-adv-x="1310" d="M123 369q0 67 22.5 125t58.5 97.5t80 72t87.5 51t79.5 31.5t59 18l22 4v10q-7 2 -18 6t-44 18t-63 31.5t-66.5 46.5t-63 61.5t-44.5 78.5t-18 96q0 152 121.5 255.5t329.5 103.5q194 0 312 -104t118 -255q0 -54 -18.5 -102t-48.5 -81.5t-66 -61t-72 -44.5t-66 -28.5 t-49 -16.5l-18 -4v-10q9 -2 24.5 -6t60 -19.5t85.5 -34.5t90.5 -53t85 -72.5t60 -94.5t24.5 -119q0 -77 -38 -150.5t-106 -131.5t-172 -93t-227 -35q-115 0 -214.5 35t-166 93t-104 131.5t-37.5 150.5zM174 369q0 -69 34 -135t93.5 -118.5t149.5 -84t194 -31.5 q108 0 200 31.5t152.5 84t94.5 118.5t34 135q0 67 -27.5 124t-72 95t-97.5 68t-106.5 46.5t-98 27.5t-72.5 14l-27 4q-9 -1 -25.5 -3.5t-63.5 -14.5t-89.5 -28t-94.5 -46.5t-89.5 -68t-63 -94.5t-25.5 -124zM276 1116q0 -54 21.5 -101.5t56 -80t76 -59t83 -42.5t76 -26.5 t55.5 -14.5l22 -4q8 1 21.5 4t53 14.5t75 26.5t79 42t75 59.5t53 80t21.5 101.5q0 135 -103 226.5t-275 91.5q-179 0 -284.5 -91.5t-105.5 -226.5z" />
<glyph unicode="9" horiz-adv-x="1259" d="M102 1004q0 201 139 336t353 135q112 0 208.5 -44t168.5 -126t113.5 -207t41.5 -279q0 -352 -225.5 -580t-601.5 -259l-12 32q367 52 565 244t213 502h-10q-7 -9 -20.5 -24.5t-59 -54.5t-95.5 -68.5t-128 -54t-158 -24.5q-214 0 -353 135.5t-139 336.5zM164 1004 q0 -185 123 -308t307 -123q59 0 116.5 14t102.5 36.5t86.5 50t71 55t51 50t32.5 36.5l11 14v11q0 138 -37.5 252t-102 188t-149.5 114t-182 40q-184 0 -307 -123t-123 -307z" />
<glyph unicode=":" horiz-adv-x="389" d="M133 41q0 23 19.5 42t42.5 19t42 -19t19 -42t-19 -42t-42 -19t-42.5 19t-19.5 42zM133 983q0 23 19.5 42t42.5 19t42 -19t19 -42t-19 -42t-42 -19t-42.5 19t-19.5 42z" />
<glyph unicode=";" horiz-adv-x="389" d="M82 -195q5 3 12.5 8.5t27 23.5t34.5 37.5t27 48t12 57.5q-23 0 -42.5 19t-19.5 42t19.5 42t42.5 19q24 0 42.5 -20.5t18.5 -50.5q0 -49 -16 -93t-38.5 -72.5t-45 -50t-38.5 -31.5l-16 -9zM133 983q0 23 19.5 42t42.5 19t42 -19t19 -42t-19 -42t-42 -19t-42.5 19t-19.5 42 z" />
<glyph unicode="&#x3c;" horiz-adv-x="1024" d="M82 451v51l901 409v-61l-840 -369v-10l840 -369v-61z" />
<glyph unicode="=" horiz-adv-x="1003" d="M82 481v51h840v-51h-840zM82 901v51h840v-51h-840z" />
<glyph unicode="&#x3e;" horiz-adv-x="1024" d="M82 41v61l840 369v10l-840 369v61l901 -409v-51z" />
<glyph unicode="?" horiz-adv-x="1095" d="M41 1219q7 10 19.5 27.5t57.5 61.5t95.5 78t131.5 61.5t167 27.5q211 0 346 -125t135 -306q0 -84 -25.5 -156t-66 -121t-90 -88t-98.5 -62t-89.5 -38t-65.5 -21l-26 -5l-20 -225h-20l-21 256q10 1 26.5 3.5t64.5 16t91.5 32t96.5 55.5t91.5 82.5t64.5 116t26 154.5 q0 164 -119 277t-301 113q-80 0 -155 -24.5t-124.5 -59t-87.5 -69t-55 -59.5l-18 -24zM440 41q0 23 19.5 42t42.5 19t42 -19t19 -42t-19 -42t-42 -19t-42.5 19t-19.5 42z" />
<glyph unicode="@" horiz-adv-x="2129" d="M154 553q0 196 72.5 371t195.5 300t293.5 198t359.5 73q196 0 368 -69t293 -187t191 -280.5t70 -344.5q0 -250 -103.5 -381t-265.5 -131q-43 0 -85.5 14t-72 33.5t-52.5 39t-34 33.5l-12 14h-10q-4 -5 -12 -14.5t-34.5 -32.5t-55 -40.5t-73.5 -32t-91 -14.5 q-172 0 -280.5 119t-108.5 322t108.5 321.5t280.5 118.5q40 0 79 -10.5t66 -25.5t48 -30t31 -25l11 -11h10q1 18 6 38.5t10 32.5l5 11h61q-20 -52 -20 -154v-533q4 -5 11 -14t30 -32t47.5 -40.5t62 -32t74.5 -14.5q133 0 220 119t87 352q0 174 -65.5 329.5t-179 267.5 t-274 177.5t-341.5 65.5q-174 0 -332.5 -69.5t-274.5 -188.5t-184.5 -287t-68.5 -356q0 -189 70 -356t191 -287t293 -189t368 -69q80 0 162.5 14.5t142.5 36t108.5 42.5t73.5 35l25 15l20 -41q-9 -6 -26 -15.5t-72.5 -34t-114 -43.5t-146 -34.5t-173.5 -15.5 q-211 0 -394.5 73t-312.5 198.5t-202.5 299.5t-73.5 371zM768 543q0 -187 92.5 -293.5t235.5 -106.5q40 0 80 13.5t68.5 33t51 39.5t34.5 33l11 14v533q-4 5 -12 14t-33 32t-52 40.5t-67.5 32t-80.5 14.5q-143 0 -235.5 -106.5t-92.5 -292.5z" />
<glyph unicode="A" horiz-adv-x="1433" d="M82 0l614 1434h41l615 -1434h-72l-174 410h-799l-174 -410h-51zM328 451h757l-374 880h-9z" />
<glyph unicode="B" horiz-adv-x="1382" d="M236 0v1434h512q186 0 297.5 -97.5t111.5 -240.5q0 -66 -25.5 -121t-61.5 -86t-72 -53t-62 -30l-25 -7v-11q8 -1 21 -3.5t51.5 -14.5t73.5 -28.5t77.5 -47.5t73 -69.5t51.5 -97.5t21 -128q0 -166 -130.5 -282.5t-340.5 -116.5h-573zM297 41h512q181 0 295.5 104 t114.5 254t-114.5 254.5t-295.5 104.5h-512v-717zM297 799h451q157 0 252.5 85t95.5 212t-95.5 212t-252.5 85h-451v-594z" />
<glyph unicode="C" horiz-adv-x="1484" d="M133 717q0 221 93.5 395t254.5 268.5t359 94.5q77 0 149.5 -16.5t126 -42.5t100.5 -58t79 -63.5t54.5 -57.5t32.5 -43l11 -16l-31 -21q-7 11 -20 30t-60.5 66.5t-103 84t-147 66.5t-191.5 30q-133 0 -251.5 -52t-205.5 -144.5t-137.5 -227.5t-50.5 -293t50.5 -293 t137.5 -227.5t205.5 -144.5t251.5 -52q81 0 155.5 16.5t128.5 42.5t100.5 57.5t76.5 63.5t51.5 58t31.5 42l9 17l30 -21q-3 -7 -10 -18t-32 -44t-55 -63t-80.5 -66.5t-106.5 -63t-134.5 -44.5t-164.5 -18q-198 0 -359 94.5t-254.5 268.5t-93.5 395z" />
<glyph unicode="D" horiz-adv-x="1495" d="M236 0v1434h358q170 0 314 -54.5t243.5 -150t155 -228t55.5 -284.5t-55.5 -284.5t-155 -228t-243.5 -150t-314 -54.5h-358zM297 41h297q155 0 287 51t224 140.5t143.5 215t51.5 269.5t-51.5 269.5t-143.5 215t-224 140.5t-287 51h-297v-1352z" />
<glyph unicode="E" horiz-adv-x="1259" d="M236 0v1434h921l-10 -41h-850v-635h635l-10 -41h-625v-676h901v-41h-962z" />
<glyph unicode="F" horiz-adv-x="1177" d="M236 0v1434h901l-11 -41h-829v-676h655l-10 -41h-645v-676h-61z" />
<glyph unicode="G" horiz-adv-x="1617" d="M133 717q0 221 93.5 395t254.5 268.5t359 94.5q77 0 149.5 -16.5t126 -42.5t100.5 -58t79 -63.5t54.5 -57.5t32.5 -43l11 -16l-31 -21q-7 11 -20 30t-60.5 66.5t-103 84t-147 66.5t-191.5 30q-133 0 -251.5 -52t-205.5 -144.5t-137.5 -227.5t-50.5 -293t50.5 -293 t137.5 -227.5t205.5 -144.5t251.5 -52q73 0 141.5 14t119 36.5t95 50t74 55t51 50t31.5 36.5l10 14v440h-461v41h522v-737h-30l-21 195h-10q-7 -10 -20 -25.5t-60.5 -56.5t-103 -72t-147 -56.5t-191.5 -25.5q-198 0 -359 94.5t-254.5 268.5t-93.5 395z" />
<glyph unicode="H" horiz-adv-x="1556" d="M236 0v1434h61v-656h963v656h61v-1434h-61v737h-963v-737h-61z" />
<glyph unicode="I" horiz-adv-x="532" d="M236 0v1434h61v-1434h-61z" />
<glyph unicode="J" horiz-adv-x="563" d="M-102 -389q163 0 265.5 134t102.5 400v1289h62v-1289q0 -282 -118.5 -428.5t-311.5 -146.5v41z" />
<glyph unicode="K" horiz-adv-x="1341" d="M236 0v1434h61v-656h420l471 656h51l-481 -676l542 -758h-71l-533 737h-399v-737h-61z" />
<glyph unicode="L" horiz-adv-x="1198" d="M236 0v1434h61v-1393h860l-10 -41h-911z" />
<glyph unicode="M" horiz-adv-x="1925" d="M236 0v1434h61l655 -1127h11l665 1127h62v-1434h-62v1331h-10l-655 -1106h-31l-645 1106h-11v-1331h-40z" />
<glyph unicode="N" horiz-adv-x="1556" d="M236 0v1434h61l973 -1352h10v1352h41v-1434h-61l-973 1352h-11v-1352h-40z" />
<glyph unicode="O" horiz-adv-x="1679" d="M133 717q0 221 93.5 395t254.5 268.5t359 94.5q148 0 278.5 -55.5t224.5 -154t148.5 -240.5t54.5 -308t-54.5 -308t-148.5 -240.5t-224.5 -154t-278.5 -55.5q-198 0 -359 94.5t-254.5 268.5t-93.5 395zM195 717q0 -158 50.5 -293t137.5 -227.5t205.5 -144.5t251.5 -52 t251.5 52t205.5 144.5t137.5 227.5t50.5 293t-50.5 293t-137.5 227.5t-205.5 144.5t-251.5 52t-251.5 -52t-205.5 -144.5t-137.5 -227.5t-50.5 -293z" />
<glyph unicode="P" horiz-adv-x="1361" d="M236 0v1434h512q225 0 368.5 -131t143.5 -320t-143.5 -320t-368.5 -131h-451v-532h-61zM297 573h451q196 0 323 119t127 291t-127 291t-323 119h-451v-820z" />
<glyph unicode="Q" horiz-adv-x="1658" d="M133 717q0 221 93.5 395t254.5 268.5t359 94.5q148 0 278.5 -55.5t224.5 -154t148.5 -240.5t54.5 -308q0 -89 -14.5 -169.5t-38.5 -141.5t-55.5 -115t-66.5 -92.5t-70 -70t-66.5 -51t-55.5 -33t-39 -18.5l-14 -6q9 -10 26 -26.5t75.5 -61t124.5 -81t171.5 -71.5 t217.5 -46v-62q-94 12 -181 37t-151 55t-119.5 63t-92 63.5t-62.5 55t-38 39.5l-12 15q-112 -41 -245 -41q-198 0 -359 94.5t-254.5 268.5t-93.5 395zM195 717q0 -158 50.5 -293t137.5 -227.5t205.5 -144.5t251.5 -52t251.5 52t205.5 144.5t137.5 227.5t50.5 293t-50.5 293 t-137.5 227.5t-205.5 144.5t-251.5 52t-251.5 -52t-205.5 -144.5t-137.5 -227.5t-50.5 -293z" />
<glyph unicode="R" horiz-adv-x="1382" d="M236 0v1434h491q226 0 359 -120.5t133 -309.5q0 -71 -18 -132t-47 -101.5t-64 -73.5t-70 -51.5t-64 -31t-47 -16.5l-18 -4v-10l409 -584h-71l-400 573h-532v-573h-61zM297 614h430q196 0 313 109t117 281t-117 280.5t-313 108.5h-430v-779z" />
<glyph unicode="S" horiz-adv-x="1259" d="M82 276l31 21q3 -6 9.5 -17t30 -41.5t50.5 -58.5t73.5 -62.5t97.5 -59t122.5 -41.5t148.5 -17q101 0 186.5 30t143 81t89.5 118t32 140q0 79 -51 139t-132 99t-179.5 73t-197 70t-179.5 80t-132 114.5t-51 161.5q0 69 34 135t94.5 118.5t152.5 84t200 31.5 q63 0 122.5 -14t105 -36.5t86.5 -50t69 -55t48.5 -50t29.5 -36.5l10 -14l-30 -21q-6 10 -18 25.5t-54.5 56.5t-89.5 72t-123 56.5t-156 25.5q-184 0 -301.5 -99t-117.5 -229q0 -79 51 -139t132 -99t179 -73t196.5 -70t179.5 -80t132 -114.5t51 -161.5q0 -81 -36 -155 t-100.5 -130.5t-162.5 -90.5t-213 -34q-81 0 -156.5 17.5t-130 45.5t-102 61.5t-79 67.5t-53.5 62t-32 45z" />
<glyph unicode="T" horiz-adv-x="1208" d="M41 1393v41h1126l-10 -41h-522v-1393h-62v1393h-532z" />
<glyph unicode="U" horiz-adv-x="1556" d="M236 532v902h61v-902q0 -242 135 -387t346 -145q225 0 363.5 144t138.5 388v902h41v-902q0 -259 -151.5 -416t-391.5 -157t-391 157t-151 416z" />
<glyph unicode="V" horiz-adv-x="1351" d="M61 1434h72l549 -1332h8l549 1332h51l-594 -1434h-41z" />
<glyph unicode="W" horiz-adv-x="2078" d="M82 1434h61l430 -1342h11l430 1342h61l430 -1342h11l430 1342h51l-461 -1434h-61l-431 1341h-10l-430 -1341h-61z" />
<glyph unicode="X" d="M61 0l553 727l-522 707h72l481 -656h10l482 656h51l-512 -697l563 -737h-72l-522 686h-10l-522 -686h-52z" />
<glyph unicode="Y" horiz-adv-x="1249" d="M41 1434h72l518 -881h8l518 881h51l-553 -942v-492h-61v492z" />
<glyph unicode="Z" horiz-adv-x="1187" d="M61 0v41l953 1341v11h-912v41h983v-41l-952 -1342v-10h993l-10 -41h-1055z" />
<glyph unicode="[" horiz-adv-x="706" d="M236 -451v2007h409v-40h-348v-1926h348v-41h-409z" />
<glyph unicode="\" horiz-adv-x="849" d="M82 1536h51l635 -1638h-51z" />
<glyph unicode="]" horiz-adv-x="706" d="M61 -410h349v1926h-349v40h410v-2007h-410v41z" />
<glyph unicode="^" horiz-adv-x="911" d="M82 840l348 594h51l348 -594h-61l-307 522h-10l-308 -522h-61z" />
<glyph unicode="_" horiz-adv-x="901" d="M41 -205h819v-51h-819v51z" />
<glyph unicode="`" horiz-adv-x="450" d="M82 1434h72l215 -390h-41z" />
<glyph unicode="a" horiz-adv-x="1157" d="M92 307q0 151 108 244.5t302 93.5q91 0 193.5 -25.5t158.5 -51.5l57 -25v82q0 183 -99 286t-269 103q-57 0 -112 -16t-92.5 -38.5t-66.5 -45t-43 -38.5l-14 -16l-31 21q5 7 15.5 19t46 42t74 52.5t99.5 41.5t124 19q199 0 314.5 -115.5t115.5 -314.5v-379 q0 -68 7.5 -129.5t15.5 -88.5l8 -28h-62q-20 92 -20 184h-11q-7 -9 -19.5 -23.5t-53.5 -51.5t-86 -65.5t-113 -51.5t-137 -23q-194 0 -302 93.5t-108 244.5zM154 307q0 -134 91.5 -215.5t256.5 -81.5q69 0 136.5 24.5t114.5 59t84 69t55 59.5l19 24v246q-8 5 -23 12.5 t-61.5 26.5t-92.5 34t-110.5 27t-121.5 12q-165 0 -256.5 -81.5t-91.5 -215.5z" />
<glyph unicode="b" d="M174 0q31 92 31 246v1229h61v-625h10q6 8 18 22t52 49.5t83 62.5t110.5 49t136.5 22q224 0 373 -153.5t149 -389.5t-149 -389.5t-373 -153.5q-69 0 -136.5 22t-114.5 53.5t-84.5 63.5t-56.5 54l-18 22h-10q0 -41 -5 -87t-10 -71l-5 -26h-62zM266 246q7 -10 19.5 -25.5 t54 -56.5t86 -72t113 -56.5t137.5 -25.5q127 0 232 63t167 178.5t62 260.5t-62 260.5t-167 178.5t-232 63q-69 0 -136.5 -24.5t-114.5 -59t-84.5 -69t-56.5 -59.5l-18 -24v-532z" />
<glyph unicode="c" horiz-adv-x="1085" d="M102 512q0 155 68 280t185 194t259 69q69 0 134.5 -20t109.5 -48.5t78.5 -57.5t51.5 -49l16 -20l-31 -20q-5 7 -15.5 19t-46 42t-74 52.5t-99.5 41.5t-124 19q-188 0 -319 -141.5t-131 -360.5t131 -360.5t319 -141.5q74 0 143 22t113.5 53.5t78.5 63.5t49 54l16 22 l30 -20q-3 -5 -9 -13.5t-26.5 -33t-43.5 -47t-61 -49.5t-79 -46.5t-96.5 -33t-114.5 -13.5q-142 0 -259 69t-185 194t-68 280z" />
<glyph unicode="d" d="M102 512q0 236 149.5 389.5t373.5 153.5q69 0 135.5 -21t112 -51.5t81.5 -60.5t53 -51l17 -21h10v625h62v-1229q0 -68 7.5 -129.5t14.5 -88.5l8 -28h-61q-21 92 -21 184h-10q-7 -9 -19.5 -23.5t-53.5 -51.5t-86 -65.5t-113 -51.5t-137 -23q-224 0 -373.5 153.5 t-149.5 389.5zM164 512q0 -145 62 -260.5t167 -178.5t232 -63q69 0 136.5 24.5t114.5 59t84 69t56 59.5l18 24v532q-7 10 -19.5 25.5t-53.5 56.5t-86 72t-113 56.5t-137 25.5q-127 0 -232 -63t-167 -178.5t-62 -260.5z" />
<glyph unicode="e" horiz-adv-x="1177" d="M102 512q0 116 39.5 218t106.5 173t157 111.5t189 40.5q98 0 188.5 -40.5t157 -109.5t106 -166.5t39.5 -206.5q0 -9 -2.5 -19t-4.5 -15l-3 -6h-911q0 -135 61 -246t164 -173.5t225 -62.5q74 0 143 22t113.5 53.5t78.5 63.5t49 54l16 22l30 -20q-3 -5 -9 -13.5t-26.5 -33 t-43.5 -47t-61 -49.5t-79 -46.5t-96.5 -33t-114.5 -13.5q-142 0 -259 69t-185 194t-68 280zM164 532h860q0 101 -35.5 191.5t-95 153.5t-137.5 100t-162 37t-162 -37t-137.5 -100t-95 -153.5t-35.5 -191.5z" />
<glyph unicode="f" horiz-adv-x="757" d="M41 963v41h225v102q0 159 94 258.5t234 99.5q46 0 90.5 -13.5t74.5 -33t54 -39.5t35 -34l12 -13l-31 -20q-4 5 -11 12.5t-30.5 26.5t-49 34t-65 27t-79.5 12q-111 0 -188.5 -87.5t-77.5 -229.5v-102h368l-10 -41h-358v-963h-62v963h-225z" />
<glyph unicode="g" d="M102 530q0 146 68.5 266t188.5 188.5t266 68.5q69 0 136.5 -22t114.5 -54t84 -63.5t56 -53.5l18 -22h10q0 41 5 87t11 71l5 26h61q-30 -92 -30 -246v-756q0 -208 -135.5 -339.5t-356.5 -131.5q-74 0 -141.5 20t-111 48.5t-75.5 57.5t-46 49l-15 20l31 20q5 -7 14 -19 t41.5 -42t70.5 -52.5t100.5 -41.5t131.5 -19q192 0 311 119t119 311v193h-10q-6 -8 -18 -22t-51.5 -49.5t-83 -62.5t-110.5 -49t-136 -22q-146 0 -266 68t-188.5 188t-68.5 266zM164 530q0 -205 134 -343t327 -138q69 0 136.5 24.5t114.5 59t84 69t56 58.5l18 25v491 q-7 10 -19.5 25.5t-53.5 56.5t-86 72t-113 56.5t-137 25.5q-193 0 -327 -138t-134 -344z" />
<glyph unicode="h" horiz-adv-x="1280" d="M205 0v1475h61v-625h10q6 8 18 22t52 49.5t83 62.5t110.5 49t136.5 22q191 0 305.5 -111t114.5 -289v-655h-62v655q0 154 -102 256.5t-256 102.5q-69 0 -136.5 -24.5t-114.5 -59t-84.5 -69t-56.5 -59.5l-18 -24v-778h-61z" />
<glyph unicode="i" horiz-adv-x="471" d="M174 1393q0 23 19.5 42t42.5 19t42 -19t19 -42t-19 -42.5t-42 -19.5t-42.5 19.5t-19.5 42.5zM205 0v1024h61v-1024h-61z" />
<glyph unicode="j" horiz-adv-x="501" d="M-113 -389q159 0 254 110.5t95 319.5v983h61v-983q0 -226 -111 -348.5t-299 -122.5v41zM205 1393q0 23 19 42t42 19t42.5 -19t19.5 -42t-19.5 -42.5t-42.5 -19.5t-42 19.5t-19 42.5z" />
<glyph unicode="k" horiz-adv-x="1064" d="M205 0v1475h61v-922h338l318 471h51l-328 -481l379 -543h-72l-358 512h-328v-512h-61z" />
<glyph unicode="l" horiz-adv-x="471" d="M205 0v1475h61v-1475h-61z" />
<glyph unicode="m" horiz-adv-x="1904" d="M174 1024h62q20 -92 20 -184h10q6 9 17 23.5t47.5 51.5t75.5 65.5t99 51.5t120 23q52 0 99.5 -13t81.5 -34t62.5 -46t47 -50t31.5 -46t19 -34l5 -13h10q6 10 18 25.5t50.5 56.5t79 72t102 56.5t121.5 25.5q156 0 262 -112.5t106 -287.5v-655h-61v655q0 157 -90 258 t-217 101q-60 0 -120.5 -26.5t-103 -64t-77 -75t-51.5 -64.5l-17 -26q10 -62 10 -103v-655h-61v655q0 157 -90 258t-217 101q-60 0 -119 -24.5t-100.5 -59t-74.5 -69t-49 -59.5l-16 -24v-778h-61v778q0 68 -7.5 129.5t-15.5 88.5z" />
<glyph unicode="n" horiz-adv-x="1280" d="M174 1024h62q20 -92 20 -184h10q7 9 19.5 23.5t54 51.5t86 65.5t113 51.5t137.5 23q191 0 305.5 -111t114.5 -289v-655h-62v655q0 154 -102 256.5t-256 102.5q-69 0 -136.5 -24.5t-114.5 -59t-84.5 -69t-56.5 -59.5l-18 -24v-778h-61v778q0 68 -7.5 129.5t-15.5 88.5z " />
<glyph unicode="o" horiz-adv-x="1228" d="M102 512q0 155 68 280t185 194t259 69t259 -69t185 -194t68 -280t-68 -280t-185 -194t-259 -69t-259 69t-185 194t-68 280zM164 512q0 -219 131 -360.5t319 -141.5q92 0 174.5 37t143.5 102t97 159.5t36 203.5t-36 203.5t-97 159.5t-143.5 102t-174.5 37 q-188 0 -319 -141.5t-131 -360.5z" />
<glyph unicode="p" d="M174 1024h62q20 -92 20 -184h10q7 9 19.5 23.5t54 51.5t86 65.5t113 51.5t137.5 23q224 0 373 -153.5t149 -389.5t-149 -389.5t-373 -153.5q-69 0 -135.5 21t-112 51t-81.5 60.5t-53 51.5l-18 21h-10v-584h-61v1188q0 68 -7.5 129.5t-15.5 88.5zM266 246 q7 -10 19.5 -25.5t54 -56.5t86 -72t113 -56.5t137.5 -25.5q127 0 232 63t167 178.5t62 260.5t-62 260.5t-167 178.5t-232 63q-69 0 -136.5 -24.5t-114.5 -59t-84.5 -69t-56.5 -59.5l-18 -24v-532z" />
<glyph unicode="q" d="M102 512q0 236 149.5 389.5t373.5 153.5q69 0 136.5 -22t114.5 -54t84 -63.5t56 -53.5l18 -22h10q0 41 5 87t11 71l5 26h61q-30 -92 -30 -246v-1188h-62v584h-10q-6 -8 -18 -22t-51.5 -49.5t-83 -62.5t-110.5 -49t-136 -22q-224 0 -373.5 153.5t-149.5 389.5zM164 512 q0 -145 62 -260.5t167 -178.5t232 -63q69 0 136.5 24.5t114.5 59t84 69t56 59.5l18 24v532q-7 10 -19.5 25.5t-53.5 56.5t-86 72t-113 56.5t-137 25.5q-127 0 -232 -63t-167 -178.5t-62 -260.5z" />
<glyph unicode="r" horiz-adv-x="788" d="M174 1024h62q20 -92 20 -184h10q6 9 17 23.5t48 51.5t77 65.5t102 51.5t125 23q36 0 69.5 -5.5t48.5 -10.5l15 -5l-20 -51q-52 21 -113 21q-63 0 -124 -23.5t-103.5 -56.5t-76 -66t-49.5 -56l-16 -24v-778h-61v778q0 68 -7.5 129.5t-15.5 88.5z" />
<glyph unicode="s" horiz-adv-x="962" d="M61 205l31 20q5 -9 15.5 -23.5t47 -51.5t77 -65.5t105.5 -51.5t134 -23q161 0 254.5 75t93.5 181q0 62 -38.5 106t-100 69.5t-135.5 45.5t-148 42.5t-135.5 52t-100 81.5t-38.5 125q0 107 100.5 187t268.5 80q63 0 124 -18t103.5 -43.5t75.5 -51t49 -43.5l16 -18l-31 -21 q-5 6 -15.5 16.5t-44 37t-70.5 47t-93.5 37t-113.5 16.5q-139 0 -223.5 -68t-84.5 -158q0 -62 38.5 -106t100 -69.5t135.5 -45.5t148.5 -42.5t136 -52t100 -81.5t38.5 -125q0 -123 -110 -210t-300 -87q-74 0 -144 24.5t-116 59t-81.5 69t-51.5 58.5z" />
<glyph unicode="t" horiz-adv-x="880" d="M41 983v41h225l31 307h31v-307h368l-10 -41h-358v-655q0 -142 77.5 -230t188.5 -88q40 0 79 11.5t66 28t48 33.5t31 29l11 11l31 -21q-4 -5 -12 -14t-34.5 -32t-55 -40.5t-73.5 -32t-91 -14.5q-140 0 -234 100t-94 259v655h-225z" />
<glyph unicode="u" d="M205 369v655h61v-655q0 -154 102.5 -256.5t256.5 -102.5q69 0 136.5 24.5t114.5 59t84 69t56 59.5l18 24v778h62v-778q0 -68 7.5 -129.5t14.5 -88.5l8 -28h-61q-21 92 -21 184h-10q-7 -9 -19.5 -23.5t-53.5 -51.5t-86 -65.5t-113 -51.5t-137 -23q-191 0 -305.5 111 t-114.5 289z" />
<glyph unicode="v" horiz-adv-x="1044" d="M41 1024h72l409 -930h10l420 930h52l-461 -1024h-41z" />
<glyph unicode="w" horiz-adv-x="1587" d="M61 1024h62l317 -942h11l317 942h61l318 -942h10l318 942h51l-348 -1024h-62l-317 942h-11l-317 -942h-61z" />
<glyph unicode="x" horiz-adv-x="993" d="M41 0l420 522l-400 502h72l359 -451h10l358 451h51l-389 -492l430 -532h-71l-389 481h-11l-389 -481h-51z" />
<glyph unicode="y" d="M205 389v635h61v-635q0 -154 102.5 -256t256.5 -102q69 0 136.5 24t114.5 58.5t84 69.5t56 59l18 24v758h62v-1004q0 -208 -135.5 -339.5t-356.5 -131.5q-74 0 -141.5 20t-111 48.5t-75.5 57.5t-46 49l-15 20l31 20q5 -7 14 -19t41.5 -42t70.5 -52.5t100.5 -41.5 t131.5 -19q192 0 311 119t119 311v175h-10q-6 -8 -18 -22t-51.5 -49.5t-83 -62.5t-110.5 -49t-136 -22q-191 0 -305.5 110.5t-114.5 288.5z" />
<glyph unicode="z" horiz-adv-x="942" d="M41 0v51l768 922v10h-727v41h799v-51l-768 -922v-10h788l-10 -41h-850z" />
<glyph unicode="{" horiz-adv-x="757" d="M82 532v41q109 0 167 62t58 184v410q0 154 87 240.5t241 86.5h61v-40h-61q-124 0 -195 -75t-71 -212v-410q0 -63 -17 -113t-41 -77t-48 -44.5t-41 -22.5l-17 -5v-8q7 -2 18 -5.5t39 -22t50 -44.5t39.5 -76.5t17.5 -113.5v-410q0 -137 71 -212t195 -75h61v-41h-61 q-154 0 -241 87t-87 241v410q0 121 -58 183t-167 62z" />
<glyph unicode="|" horiz-adv-x="573" d="M256 -246v1925h61v-1925h-61z" />
<glyph unicode="}" horiz-adv-x="757" d="M61 -410h62q124 0 195 75t71 212v410q0 46 9 85t23.5 65.5t32 47t35 32.5t32 19.5t23.5 9.5l9 3v8q-7 2 -18 5.5t-39 22t-50 44.5t-39.5 76.5t-17.5 113.5v410q0 137 -71 212t-195 75h-62v40h62q154 0 241 -86.5t87 -240.5v-410q0 -122 58 -184t167 -62v-41 q-109 0 -167 -62t-58 -183v-410q0 -154 -87 -241t-241 -87h-62v41z" />
<glyph unicode="~" horiz-adv-x="1044" d="M82 645q1 5 4 14t13 34.5t22 48.5t33 51.5t45 49t57.5 34.5t71.5 14q48 0 92.5 -23t79 -56.5t68 -66.5t72 -56t77.5 -23q43 0 80 21t59 51t38 60t22 51l6 21l41 -20q-1 -5 -4 -14t-13 -34.5t-22 -48.5t-33 -51.5t-45 -49t-57.5 -34.5t-71.5 -14q-48 0 -92.5 23t-79 56 t-68 66.5t-72 56.5t-77.5 23q-43 0 -80 -21t-59 -51t-38 -60t-22 -51l-6 -21z" />
<glyph unicode="&#xa1;" horiz-adv-x="552" d="M215 983q0 23 19 42t42 19t42.5 -19t19.5 -42t-19.5 -42t-42.5 -19t-42 19t-19 42zM246 328l20 368h21l20 -368v-738h-61v738z" />
<glyph unicode="&#xa2;" horiz-adv-x="1085" d="M102 512q0 223 134 374.5t337 166.5v196h41v-194q69 0 134.5 -20t109.5 -48.5t78.5 -57.5t51.5 -49l16 -20l-31 -20q-5 7 -15.5 19t-46 42t-74 52.5t-99.5 41.5t-124 19q-188 0 -319 -141.5t-131 -360.5t131 -360.5t319 -141.5q74 0 143 22t113.5 53.5t78.5 63.5t49 54 l16 22l30 -20q-3 -5 -9 -13.5t-26.5 -33t-43.5 -47t-61 -49.5t-79 -46.5t-96.5 -33t-114.5 -13.5v-194h-41v196q-204 15 -337.5 165.5t-133.5 375.5z" />
<glyph unicode="&#xa3;" horiz-adv-x="1116" d="M41 0v41h61q11 5 29 15t64 48t81 83t64 121.5t29 162.5v287h-226v41h226v307q0 159 93.5 258.5t233.5 99.5q46 0 90.5 -13.5t75 -33t54.5 -39.5t36 -34l11 -13l-31 -20q-4 5 -11 12.5t-31 26.5t-49.5 34t-65 27t-79.5 12q-111 0 -188.5 -87.5t-77.5 -229.5v-307h369 l-11 -41h-358v-287q0 -80 -23 -153t-56 -119.5t-66.5 -81.5t-56.5 -51l-23 -15v-10h891l-11 -41h-1044z" />
<glyph unicode="&#xa4;" horiz-adv-x="1351" d="M82 348v41h225v225h-225v41h225v779h471q226 0 348.5 -111t122.5 -299t-122.5 -299t-348.5 -111h-409v-225h635v-41h-635v-348h-62v348h-225zM369 655h409q197 0 303.5 99t106.5 270t-106.5 270t-303.5 99h-409v-738z" />
<glyph unicode="&#xa5;" horiz-adv-x="1290" d="M61 1434h72l518 -881h8l519 881h51l-447 -758h314v-41h-336l-84 -143v-123h420v-41h-420v-328h-62v328h-419v41h419v123l-84 143h-335v41h311z" />
<glyph unicode="&#xa6;" horiz-adv-x="532" d="M236 -246v778h61v-778h-61zM236 901v778h61v-778h-61z" />
<glyph unicode="&#xa7;" horiz-adv-x="1126" d="M154 -215l30 20q6 -7 17.5 -19t49.5 -42t77.5 -52.5t98.5 -41.5t116 -19q157 0 247.5 80.5t90.5 206.5q0 58 -39.5 106.5t-103 84.5t-139.5 70.5t-152.5 72t-140 80t-103 104.5t-39.5 137q0 52 19 100.5t46 80.5t54 57.5t46 36.5l19 12v10q-5 3 -14 9.5t-32 28 t-40.5 44.5t-32 59.5t-14.5 73.5q0 142 103 235t276 93q57 0 112 -18t92.5 -43.5t66.5 -51t43 -43.5l14 -18l-31 -20q-5 6 -13.5 16.5t-38 37t-61.5 46.5t-82 36.5t-102 16.5q-144 0 -231 -81t-87 -206q0 -58 38.5 -106.5t100 -84.5t135.5 -70.5t148.5 -72t136 -80 t100 -104.5t38.5 -137q0 -52 -19 -100.5t-46.5 -80.5t-54.5 -57.5t-46 -37.5l-19 -11v-10q6 -3 16.5 -9.5t37 -28t47 -44.5t37 -59.5t16.5 -73.5q0 -143 -106.5 -235.5t-292.5 -92.5q-63 0 -126 20t-108.5 49t-82 57.5t-54.5 48.5zM225 573q0 -49 23 -93.5t56 -76t90 -66.5 t103.5 -57.5t121 -57.5t118.5 -58q7 4 19 12t42 34.5t52.5 55t41.5 73.5t19 91q0 49 -23 93.5t-55.5 76t-90.5 67t-104 57.5t-120.5 57.5t-118.5 58.5q-7 -4 -19 -12t-42 -34.5t-52.5 -55.5t-41.5 -74t-19 -91z" />
<glyph unicode="&#xa8;" horiz-adv-x="675" d="M82 1393q0 23 19 42t42 19t42.5 -19t19.5 -42t-19.5 -42.5t-42.5 -19.5t-42 19.5t-19 42.5zM471 1393q0 23 19 42t42 19t42.5 -19t19.5 -42t-19.5 -42.5t-42.5 -19.5t-42 19.5t-19 42.5z" />
<glyph unicode="&#xa9;" horiz-adv-x="2150" d="M154 553q0 196 72.5 371t195.5 300t293.5 198t359.5 73t359.5 -73t294 -198t196 -300t72.5 -371t-72.5 -371t-196 -300t-294 -198t-359.5 -73t-359.5 73t-293.5 198t-195.5 300t-72.5 371zM215 553q0 -188 68.5 -356t184.5 -287t274.5 -188.5t332.5 -69.5t332.5 69.5 t274.5 188.5t184.5 287t68.5 356t-68.5 356t-184.5 287t-274.5 188.5t-332.5 69.5t-332.5 -69.5t-274.5 -188.5t-184.5 -287t-68.5 -356zM686 543q0 191 122.5 315.5t307.5 124.5q46 0 91.5 -12.5t77.5 -30.5t57.5 -36.5t37.5 -31.5l13 -12l-31 -31q-4 5 -12 12.5t-33.5 27 t-52.5 34.5t-67.5 27t-80.5 12q-156 0 -262 -112t-106 -287t106 -287.5t262 -112.5q47 0 93 13.5t77.5 33t57 39.5t37.5 33l12 14l30 -30q-5 -6 -14.5 -15.5t-40.5 -34.5t-64.5 -44t-84.5 -34.5t-103 -15.5q-185 0 -307.5 125t-122.5 316z" />
<glyph unicode="&#xaa;" horiz-adv-x="870" d="M102 942q0 96 77 160.5t210 64.5q64 0 128 -15.5t96 -30.5l32 -15q0 164 -58 235.5t-177 71.5q-55 0 -111.5 -23t-85.5 -46l-29 -23l-20 20q4 5 12 12.5t33.5 27t52.5 34.5t67.5 27t80.5 12q149 0 223 -83.5t74 -264.5v-205q0 -32 7.5 -73t15.5 -66l7 -25h-61l-21 113 h-10q-4 -5 -12 -14t-34 -32t-53.5 -40.5t-70.5 -32t-86 -14.5q-133 0 -210 64.5t-77 160.5zM164 942q0 -79 60.5 -131.5t164.5 -52.5q43 0 85.5 14.5t72 36t52.5 42.5t35 35l11 15v154q-13 8 -35.5 20t-89.5 31.5t-131 19.5q-104 0 -164.5 -52.5t-60.5 -131.5z" />
<glyph unicode="&#xab;" horiz-adv-x="798" d="M102 532l215 390h62l-215 -385v-9l215 -385h-62zM420 532l215 390h61l-215 -385v-9l215 -385h-61z" />
<glyph unicode="&#xac;" horiz-adv-x="1003" d="M82 778v41h819v-348h-61v307h-758z" />
<glyph unicode="&#xad;" horiz-adv-x="983" d="M82 686v51h819v-51h-819z" />
<glyph unicode="&#xae;" horiz-adv-x="2150" d="M154 553q0 196 72.5 371t195.5 300t293.5 198t359.5 73t359.5 -73t294 -198t196 -300t72.5 -371t-72.5 -371t-196 -300t-294 -198t-359.5 -73t-359.5 73t-293.5 198t-195.5 300t-72.5 371zM215 553q0 -188 68.5 -356t184.5 -287t274.5 -188.5t332.5 -69.5t332.5 69.5 t274.5 188.5t184.5 287t68.5 356t-68.5 356t-184.5 287t-274.5 188.5t-332.5 69.5t-332.5 -69.5t-274.5 -188.5t-184.5 -287t-68.5 -356zM788 123v840h349q120 0 198 -72t78 -174q0 -52 -20 -95t-48.5 -68t-57 -42.5t-48.5 -23.5l-20 -7v-10l235 -348h-72l-235 348h-297 v-348h-62zM850 512h287q91 0 153 60t62 145t-62 145t-153 60h-287v-410z" />
<glyph unicode="&#xaf;" horiz-adv-x="757" d="M82 1352v51h594v-51h-594z" />
<glyph unicode="&#xb0;" horiz-adv-x="860" d="M82 1085q0 146 101 247.5t247 101.5t247 -101.5t101 -247.5t-101 -247t-247 -101t-247 101t-101 247zM143 1085q0 -129 85 -218t202 -89t202 89t85 218t-85 218.5t-202 89.5t-202 -89.5t-85 -218.5z" />
<glyph unicode="&#xb1;" horiz-adv-x="1095" d="M102 184v52h420v481h-420v51h420v430h51v-430h420v-51h-420v-481h420v-52h-891z" />
<glyph unicode="&#xb2;" horiz-adv-x="778" d="M133 737v31q9 5 24.5 15t60 40.5t85.5 61.5t90.5 76t85 87t60 90.5t24.5 90.5q0 77 -55 130.5t-139 53.5q-55 0 -108.5 -23t-80.5 -46l-26 -23l-21 31l11 11t31 24.5t49.5 31t65 24.5t79.5 11q113 0 184.5 -65.5t71.5 -159.5q0 -42 -21.5 -89t-56 -88.5t-76 -82 t-82.5 -72.5t-75.5 -57t-55.5 -38l-22 -14v-10h409l-10 -41h-502z" />
<glyph unicode="&#xb3;" horiz-adv-x="634" d="M61 819l21 31q4 -4 11 -10t29.5 -22t46 -28t59 -22t69.5 -10q96 0 155.5 51t59.5 123q0 70 -54 122t-130 52q-27 0 -55.5 -5t-42.5 -11l-15 -5l-20 31l286 266v11h-389v41h451v-52l-256 -235h41q105 0 175 -64t70 -151q0 -89 -75 -152t-201 -63q-40 0 -79 10.5t-66 25.5 t-48.5 30t-31.5 25z" />
<glyph unicode="&#xb4;" horiz-adv-x="450" d="M82 1167l215 389h72l-246 -389h-41z" />
<glyph unicode="&#xb5;" d="M205 -410v1434h61v-655q0 -154 102.5 -256.5t256.5 -102.5q69 0 136.5 24.5t114.5 59t84 69t56 59.5l18 24v778h62v-778q0 -68 7.5 -129.5t14.5 -88.5l8 -28h-61q-21 92 -21 184h-10q-7 -9 -19.5 -23.5t-53.5 -51.5t-86 -65.5t-113 -51.5t-137 -23q-72 0 -134 20 t-100 48.5t-65.5 57.5t-38.5 49l-11 20h-10v-574h-61z" />
<glyph unicode="&#xb6;" horiz-adv-x="1155" d="M174 1065q0 155 111 262t278 107h551l-10 -41h-213v-1805h-62v1805h-204v-1805h-62v1108q-167 0 -278 107t-111 262z" />
<glyph unicode="&#xb7;" horiz-adv-x="491" d="M184 707q0 23 19.5 42t42.5 19t42 -19t19 -42t-19 -42.5t-42 -19.5t-42.5 19.5t-19.5 42.5z" />
<glyph unicode="&#xb8;" horiz-adv-x="614" d="M82 -471l20 31q8 -8 23 -20t63.5 -32t98.5 -20q83 0 133.5 46.5t50.5 117.5t-50.5 117.5t-133.5 46.5h-62l62 184h51l-51 -143q5 0 14 -0.5t34.5 -4.5t48.5 -11t51 -22.5t48.5 -36t34.5 -54.5t14 -76q0 -88 -66.5 -146.5t-178.5 -58.5q-37 0 -72 8.5t-58 20.5t-41 24 t-26 20z" />
<glyph unicode="&#xb9;" horiz-adv-x="460" d="M41 1260l246 174h41v-697h-62v625h-10l-195 -133z" />
<glyph unicode="&#xba;" horiz-adv-x="841" d="M102 1085q0 165 92 267t226 102q135 0 227 -102t92 -267t-92 -266.5t-227 -101.5q-134 0 -226 101.5t-92 266.5zM164 1085q0 -148 75.5 -237.5t180.5 -89.5t181.5 89.5t76.5 237.5t-76.5 238t-181.5 90t-180.5 -90t-75.5 -238z" />
<glyph unicode="&#xbb;" horiz-adv-x="798" d="M102 143l215 385v9l-215 385h62l215 -390l-215 -389h-62zM420 143l215 385v9l-215 385h61l215 -390l-215 -389h-61z" />
<glyph unicode="&#xbc;" horiz-adv-x="1679" d="M82 1260l246 174h41v-697h-62v625h-10l-195 -133zM287 0l942 1434h51l-942 -1434h-51zM952 174v51l430 471h52v-481h143l-10 -41h-133v-174h-62v174h-420zM1014 215h358v389h-10l-348 -379v-10z" />
<glyph unicode="&#xbd;" horiz-adv-x="1751" d="M82 1260l246 174h41v-697h-62v625h-10l-195 -133zM287 0l942 1434h51l-942 -1434h-51zM1085 0v31q9 5 24.5 15t60.5 40.5t85.5 61.5t90 76t85.5 87t60.5 90.5t24.5 90.5q0 77 -55.5 130.5t-139.5 53.5q-55 0 -108.5 -23t-80.5 -46l-26 -23l-21 30l11 11t31 25t49.5 31.5 t65 24.5t79.5 11q113 0 184.5 -65.5t71.5 -159.5q0 -42 -21.5 -89t-56 -88.5t-76 -82t-82.5 -72.5t-75.5 -57t-55.5 -39l-22 -13v-10h409l-10 -41h-502z" />
<glyph unicode="&#xbe;" horiz-adv-x="1781" d="M82 819l20 31q4 -4 11 -10t29.5 -22t46 -28t59 -22t69.5 -10q96 0 155.5 51t59.5 123q0 70 -54 122t-130 52q-27 0 -55 -5t-43 -11l-14 -5l-21 31l287 266v11h-389v41h450v-52l-256 -235h41q105 0 175.5 -64t70.5 -151q0 -89 -75.5 -152t-201.5 -63q-40 0 -79 10.5 t-66 25.5t-48 30t-32 25zM389 0l942 1434h51l-942 -1434h-51zM1055 174v51l430 471h51v-481h143l-10 -41h-133v-174h-61v174h-420zM1116 215h359v389h-11l-348 -379v-10z" />
<glyph unicode="&#xbf;" horiz-adv-x="1095" d="M102 -20q0 84 25.5 156t66 121t89.5 88t98.5 62t90 38t66.5 21l25 5l21 225h20l21 -256q-10 -1 -26.5 -3.5t-64.5 -16t-91.5 -32t-96.5 -55.5t-91.5 -82.5t-64.5 -116t-26 -154.5q0 -164 119 -277t301 -113q80 0 155 24.5t124.5 59t87.5 69t55 59.5l18 24l31 -21 q-7 -10 -19.5 -27.5t-57.5 -61.5t-95.5 -78t-131.5 -61.5t-167 -27.5q-211 0 -346.5 125t-135.5 306zM532 983q0 23 19.5 42t42.5 19t42 -19t19 -42t-19 -42t-42 -19t-42.5 19t-19.5 42z" />
<glyph unicode="&#xc0;" horiz-adv-x="1433" d="M82 0l614 1434h41l615 -1434h-72l-174 410h-799l-174 -410h-51zM328 451h757l-374 880h-9zM430 1987h72l215 -390h-41z" />
<glyph unicode="&#xc1;" horiz-adv-x="1433" d="M82 0l614 1434h41l615 -1434h-72l-174 410h-799l-174 -410h-51zM328 451h757l-374 880h-9zM717 1597l215 389h72l-246 -389h-41z" />
<glyph unicode="&#xc2;" horiz-adv-x="1433" d="M82 0l614 1434h41l615 -1434h-72l-174 410h-799l-174 -410h-51zM328 451h757l-374 880h-9zM375 1587l317 389h51l318 -389h-62l-276 338h-10l-277 -338h-61z" />
<glyph unicode="&#xc3;" horiz-adv-x="1433" d="M82 0l614 1434h41l615 -1434h-72l-174 410h-799l-174 -410h-51zM328 451h757l-374 880h-9zM399 1649q1 8 4 22t16 49.5t30.5 62.5t50.5 49t73 22q38 0 82.5 -27t79 -60t75 -60t70.5 -27q32 0 58.5 16t41.5 38t25.5 44.5t14.5 38.5l4 16l30 -10q-1 -8 -4 -22t-16 -49.5 t-30.5 -62.5t-50.5 -49t-73 -22q-38 0 -82.5 27t-79 60t-75 60t-70.5 27q-32 0 -58 -16t-41 -38t-25.5 -44.5t-14.5 -38.5l-4 -16z" />
<glyph unicode="&#xc4;" horiz-adv-x="1433" d="M82 0l614 1434h41l615 -1434h-72l-174 410h-799l-174 -410h-51zM328 451h757l-374 880h-9zM451 1761q0 23 19 42.5t42 19.5t42 -19.5t19 -42.5t-19 -42t-42 -19t-42 19t-19 42zM840 1761q0 23 19 42.5t42 19.5t42.5 -19.5t19.5 -42.5t-19.5 -42t-42.5 -19t-42 19t-19 42z " />
<glyph unicode="&#xc5;" horiz-adv-x="1433" d="M82 0l614 1434h41l615 -1434h-72l-174 410h-799l-174 -410h-51zM328 451h757l-374 880h-9zM481 1782q0 93 68 159t167 66t167.5 -66t68.5 -159t-68.5 -159t-167.5 -66t-167 66t-68 159zM532 1782q0 -76 54 -130t130 -54q77 0 131 54t54 130t-54 130t-131 54 q-76 0 -130 -54t-54 -130z" />
<glyph unicode="&#xc6;" horiz-adv-x="1966" d="M0 0l737 1434h1127l-11 -41h-768v-635h553l-10 -41h-543v-676h820v-41h-881v420h-743l-220 -420h-61zM301 461h723v932h-246z" />
<glyph unicode="&#xc7;" horiz-adv-x="1484" d="M133 717q0 221 93.5 395t254.5 268.5t359 94.5q77 0 149.5 -16.5t126 -42.5t100.5 -58t79 -63.5t54.5 -57.5t32.5 -43l11 -16l-31 -21q-7 11 -20 30t-60.5 66.5t-103 84t-147 66.5t-191.5 30q-133 0 -251.5 -52t-205.5 -144.5t-137.5 -227.5t-50.5 -293t50.5 -293 t137.5 -227.5t205.5 -144.5t251.5 -52q81 0 155.5 16.5t128.5 42.5t100.5 57.5t76.5 63.5t51.5 58t31.5 42l9 17l30 -21q-3 -7 -10 -18t-32 -44t-55 -63t-80.5 -66.5t-106.5 -63t-134.5 -44.5t-164.5 -18l-39 -102q5 0 14 -0.5t34.5 -4.5t48.5 -11t51.5 -22.5t49 -36 t34.5 -54.5t14 -76q0 -88 -67 -146.5t-179 -58.5q-37 0 -72 8.5t-58 20.5t-41 24t-26 20l-8 9l20 31q8 -8 23 -20t63.5 -32t98.5 -20q83 0 133.5 46.5t50.5 117.5t-50.5 117.5t-133.5 46.5h-62l49 143q-184 10 -332.5 106t-235.5 266.5t-87 385.5z" />
<glyph unicode="&#xc8;" horiz-adv-x="1259" d="M236 0v1434h921l-10 -41h-850v-635h635l-10 -41h-625v-676h901v-41h-962zM451 2007h72l215 -390h-41z" />
<glyph unicode="&#xc9;" horiz-adv-x="1259" d="M236 0v1434h921l-10 -41h-850v-635h635l-10 -41h-625v-676h901v-41h-962zM655 1618l215 389h72l-246 -389h-41z" />
<glyph unicode="&#xca;" horiz-adv-x="1259" d="M236 0v1434h921l-10 -41h-850v-635h635l-10 -41h-625v-676h901v-41h-962zM354 1618l317 389h52l317 -389h-61l-277 338h-10l-277 -338h-61z" />
<glyph unicode="&#xcb;" horiz-adv-x="1259" d="M236 0v1434h921l-10 -41h-850v-635h635l-10 -41h-625v-676h901v-41h-962zM461 1761q0 23 19 42.5t42 19.5t42.5 -19.5t19.5 -42.5t-19.5 -42t-42.5 -19t-42 19t-19 42zM850 1761q0 23 19 42.5t42 19.5t42.5 -19.5t19.5 -42.5t-19.5 -42t-42.5 -19t-42 19t-19 42z" />
<glyph unicode="&#xcc;" horiz-adv-x="532" d="M0 1987h72l215 -390h-41zM236 0v1434h61v-1434h-61z" />
<glyph unicode="&#xcd;" horiz-adv-x="532" d="M236 0v1434h61v-1434h-61zM246 1597l215 390h71l-245 -390h-41z" />
<glyph unicode="&#xce;" horiz-adv-x="522" d="M-82 1597l318 390h51l317 -390h-61l-277 338h-10l-276 -338h-62zM236 0v1434h61v-1434h-61z" />
<glyph unicode="&#xcf;" horiz-adv-x="512" d="M-20 1761q0 23 19 42.5t42 19.5t42 -19.5t19 -42.5t-19 -42t-42 -19t-42 19t-19 42zM225 0v1434h62v-1434h-62zM369 1761q0 23 19 42.5t42 19.5t42.5 -19.5t19.5 -42.5t-19.5 -42t-42.5 -19t-42 19t-19 42z" />
<glyph unicode="&#xd0;" horiz-adv-x="1525" d="M61 696v41h205v697h359q170 0 314 -54.5t243.5 -150t155 -228t55.5 -284.5t-55.5 -284.5t-155 -228t-243.5 -150t-314 -54.5h-359v696h-205zM328 41h297q155 0 287 51t224 140.5t143.5 215t51.5 269.5t-51.5 269.5t-143.5 215t-224 140.5t-287 51h-297v-656h422v-41h-422 v-655z" />
<glyph unicode="&#xd1;" horiz-adv-x="1556" d="M236 0v1434h61l973 -1352h10v1352h41v-1434h-61l-973 1352h-11v-1352h-40zM461 1669q1 8 4 22t16 49.5t30.5 62.5t50.5 49t73 22q38 0 82.5 -27t79 -60t75 -60t70.5 -27q32 0 58.5 16t41.5 38t25.5 44.5t14.5 38.5l4 16l30 -10q-1 -8 -4 -22t-16 -49.5t-30.5 -62.5 t-50.5 -49t-73 -22q-38 0 -82.5 27t-79 60t-75 60t-70.5 27q-32 0 -58 -16t-41 -38t-25.5 -44.5t-14.5 -38.5l-4 -16z" />
<glyph unicode="&#xd2;" horiz-adv-x="1679" d="M133 717q0 221 93.5 395t254.5 268.5t359 94.5q148 0 278.5 -55.5t224.5 -154t148.5 -240.5t54.5 -308t-54.5 -308t-148.5 -240.5t-224.5 -154t-278.5 -55.5q-198 0 -359 94.5t-254.5 268.5t-93.5 395zM195 717q0 -158 50.5 -293t137.5 -227.5t205.5 -144.5t251.5 -52 t251.5 52t205.5 144.5t137.5 227.5t50.5 293t-50.5 293t-137.5 227.5t-205.5 144.5t-251.5 52t-251.5 -52t-205.5 -144.5t-137.5 -227.5t-50.5 -293zM574 2007h72l215 -390h-41z" />
<glyph unicode="&#xd3;" horiz-adv-x="1679" d="M133 717q0 221 93.5 395t254.5 268.5t359 94.5q148 0 278.5 -55.5t224.5 -154t148.5 -240.5t54.5 -308t-54.5 -308t-148.5 -240.5t-224.5 -154t-278.5 -55.5q-198 0 -359 94.5t-254.5 268.5t-93.5 395zM195 717q0 -158 50.5 -293t137.5 -227.5t205.5 -144.5t251.5 -52 t251.5 52t205.5 144.5t137.5 227.5t50.5 293t-50.5 293t-137.5 227.5t-205.5 144.5t-251.5 52t-251.5 -52t-205.5 -144.5t-137.5 -227.5t-50.5 -293zM799 1618l215 389h71l-245 -389h-41z" />
<glyph unicode="&#xd4;" horiz-adv-x="1679" d="M133 717q0 221 93.5 395t254.5 268.5t359 94.5q148 0 278.5 -55.5t224.5 -154t148.5 -240.5t54.5 -308t-54.5 -308t-148.5 -240.5t-224.5 -154t-278.5 -55.5q-198 0 -359 94.5t-254.5 268.5t-93.5 395zM195 717q0 -158 50.5 -293t137.5 -227.5t205.5 -144.5t251.5 -52 t251.5 52t205.5 144.5t137.5 227.5t50.5 293t-50.5 293t-137.5 227.5t-205.5 144.5t-251.5 52t-251.5 -52t-205.5 -144.5t-137.5 -227.5t-50.5 -293zM518 1618l317 389h52l317 -389h-61l-277 338h-10l-277 -338h-61z" />
<glyph unicode="&#xd5;" horiz-adv-x="1679" d="M133 717q0 221 93.5 395t254.5 268.5t359 94.5q148 0 278.5 -55.5t224.5 -154t148.5 -240.5t54.5 -308t-54.5 -308t-148.5 -240.5t-224.5 -154t-278.5 -55.5q-198 0 -359 94.5t-254.5 268.5t-93.5 395zM195 717q0 -158 50.5 -293t137.5 -227.5t205.5 -144.5t251.5 -52 t251.5 52t205.5 144.5t137.5 227.5t50.5 293t-50.5 293t-137.5 227.5t-205.5 144.5t-251.5 52t-251.5 -52t-205.5 -144.5t-137.5 -227.5t-50.5 -293zM522 1690q1 8 4 22t16 49t30.5 62t50.5 49t73 22q31 0 66 -18t65.5 -43.5t60 -51t60.5 -43.5t56 -18q32 0 58 16t41 38.5 t25.5 45t14.5 38.5l4 16l31 -10q-1 -8 -4 -22t-16 -49.5t-30.5 -62.5t-50.5 -49t-73 -22q-31 0 -66 18t-65.5 43.5t-60 51t-60.5 43.5t-56 18q-32 0 -58 -16t-41 -38.5t-25.5 -45t-14.5 -38.5l-4 -16z" />
<glyph unicode="&#xd6;" horiz-adv-x="1679" d="M133 717q0 221 93.5 395t254.5 268.5t359 94.5q148 0 278.5 -55.5t224.5 -154t148.5 -240.5t54.5 -308t-54.5 -308t-148.5 -240.5t-224.5 -154t-278.5 -55.5q-198 0 -359 94.5t-254.5 268.5t-93.5 395zM195 717q0 -158 50.5 -293t137.5 -227.5t205.5 -144.5t251.5 -52 t251.5 52t205.5 144.5t137.5 227.5t50.5 293t-50.5 293t-137.5 227.5t-205.5 144.5t-251.5 52t-251.5 -52t-205.5 -144.5t-137.5 -227.5t-50.5 -293zM563 1762q0 23 19 42t42 19t42.5 -19t19.5 -42t-19.5 -42.5t-42.5 -19.5t-42 19.5t-19 42.5zM952 1762q0 23 19 42t42 19 t42.5 -19t19.5 -42t-19.5 -42.5t-42.5 -19.5t-42 19.5t-19 42.5z" />
<glyph unicode="&#xd7;" horiz-adv-x="942" d="M133 420l307 307l-307 307l41 31l297 -297l297 297l41 -31l-307 -307l307 -307l-41 -31l-297 297l-297 -297z" />
<glyph unicode="&#xd8;" horiz-adv-x="1679" d="M102 0l205 205q-174 209 -174 512q0 221 93.5 395t254.5 268.5t359 94.5q148 0 276 -56t225 -159l175 174h61l-205 -205q174 -206 174 -512q0 -166 -54.5 -308t-148.5 -240.5t-224.5 -154t-278.5 -55.5q-300 0 -502 215l-174 -174h-62zM195 717q0 -280 143 -471l973 973 q-91 101 -213 158t-258 57q-133 0 -251.5 -52t-205.5 -144.5t-137.5 -227.5t-50.5 -293zM369 215q89 -101 211.5 -158t259.5 -57q133 0 251.5 52t205.5 144.5t137.5 227.5t50.5 293q0 286 -144 471z" />
<glyph unicode="&#xd9;" horiz-adv-x="1556" d="M236 532v902h61v-902q0 -242 135 -387t346 -145q225 0 363.5 144t138.5 388v902h41v-902q0 -259 -151.5 -416t-391.5 -157t-391 157t-151 416zM574 1987h72l215 -390h-41z" />
<glyph unicode="&#xda;" horiz-adv-x="1556" d="M236 532v902h61v-902q0 -242 135 -387t346 -145q225 0 363.5 144t138.5 388v902h41v-902q0 -259 -151.5 -416t-391.5 -157t-391 157t-151 416zM737 1597l215 390h72l-246 -390h-41z" />
<glyph unicode="&#xdb;" horiz-adv-x="1556" d="M236 532v902h61v-902q0 -242 135 -387t346 -145q225 0 363.5 144t138.5 388v902h41v-902q0 -259 -151.5 -416t-391.5 -157t-391 157t-151 416zM436 1597l317 389h52l317 -389h-61l-277 338h-10l-277 -338h-61z" />
<glyph unicode="&#xdc;" horiz-adv-x="1556" d="M236 532v902h61v-902q0 -242 135 -387t346 -145q225 0 363.5 144t138.5 388v902h41v-902q0 -259 -151.5 -416t-391.5 -157t-391 157t-151 416zM522 1761q0 23 19.5 42.5t42.5 19.5t42 -19.5t19 -42.5t-19 -42t-42 -19t-42.5 19t-19.5 42zM911 1761q0 23 19.5 42.5 t42.5 19.5t42 -19.5t19 -42.5t-19 -42t-42 -19t-42.5 19t-19.5 42z" />
<glyph unicode="&#xdd;" horiz-adv-x="1249" d="M41 1434h72l518 -881h8l518 881h51l-553 -942v-492h-61v492zM604 1597l215 389h72l-246 -389h-41z" />
<glyph unicode="&#xde;" horiz-adv-x="1443" d="M236 -82v1618h61v-205h246q184 0 331 -47t242 -130t145 -194.5t50 -242.5t-50 -243t-145 -195t-242 -130t-331 -47h-246v-184h-61zM297 143h246q343 0 524.5 156t181.5 418q0 128 -44.5 232.5t-131 180.5t-222 118t-308.5 42h-246v-1147z" />
<glyph unicode="&#xdf;" horiz-adv-x="1218" d="M41 983v41h184q0 210 96.5 320t262.5 110q128 0 222.5 -88.5t94.5 -198.5q0 -69 -24 -130t-52.5 -98t-52.5 -85.5t-24 -95.5q0 -50 22.5 -90.5t58.5 -69t80 -54.5t87.5 -54t79.5 -59.5t58.5 -79t22.5 -105.5q0 -118 -87 -197.5t-230 -79.5q-55 0 -108.5 18t-79.5 36 l-27 18l20 31q10 -7 28.5 -17.5t70 -27.5t96.5 -17q114 0 185 67.5t71 168.5q0 54 -22 98t-57.5 74t-78 57l-85 54t-78 57t-57.5 74t-22 98t22.5 107t49.5 90t49.5 93.5t22.5 118.5q0 93 -78.5 169.5t-177.5 76.5q-136 0 -216.5 -98t-80.5 -291v-1024h-62v983h-184z" />
<glyph unicode="&#xe0;" horiz-adv-x="1157" d="M92 307q0 151 108 244.5t302 93.5q91 0 193.5 -25.5t158.5 -51.5l57 -25v82q0 183 -99 286t-269 103q-57 0 -112 -16t-92.5 -38.5t-66.5 -45t-43 -38.5l-14 -16l-31 21q5 7 15.5 19t46 42t74 52.5t99.5 41.5t124 19q199 0 314.5 -115.5t115.5 -314.5v-379 q0 -68 7.5 -129.5t15.5 -88.5l8 -28h-62q-20 92 -20 184h-11q-7 -9 -19.5 -23.5t-53.5 -51.5t-86 -65.5t-113 -51.5t-137 -23q-194 0 -302 93.5t-108 244.5zM154 307q0 -134 91.5 -215.5t256.5 -81.5q69 0 136.5 24.5t114.5 59t84 69t55 59.5l19 24v246q-8 5 -23 12.5 t-61.5 26.5t-92.5 34t-110.5 27t-121.5 12q-165 0 -256.5 -81.5t-91.5 -215.5zM328 1598h72l215 -390h-41z" />
<glyph unicode="&#xe1;" horiz-adv-x="1157" d="M92 307q0 151 108 244.5t302 93.5q91 0 193.5 -25.5t158.5 -51.5l57 -25v82q0 183 -99 286t-269 103q-57 0 -112 -16t-92.5 -38.5t-66.5 -45t-43 -38.5l-14 -16l-31 21q5 7 15.5 19t46 42t74 52.5t99.5 41.5t124 19q199 0 314.5 -115.5t115.5 -314.5v-379 q0 -68 7.5 -129.5t15.5 -88.5l8 -28h-62q-20 92 -20 184h-11q-7 -9 -19.5 -23.5t-53.5 -51.5t-86 -65.5t-113 -51.5t-137 -23q-194 0 -302 93.5t-108 244.5zM154 307q0 -134 91.5 -215.5t256.5 -81.5q69 0 136.5 24.5t114.5 59t84 69t55 59.5l19 24v246q-8 5 -23 12.5 t-61.5 26.5t-92.5 34t-110.5 27t-121.5 12q-165 0 -256.5 -81.5t-91.5 -215.5zM553 1208l215 389h72l-246 -389h-41z" />
<glyph unicode="&#xe2;" horiz-adv-x="1157" d="M92 307q0 151 108 244.5t302 93.5q91 0 193.5 -25.5t158.5 -51.5l57 -25v82q0 183 -99 286t-269 103q-57 0 -112 -16t-92.5 -38.5t-66.5 -45t-43 -38.5l-14 -16l-31 21q5 7 15.5 19t46 42t74 52.5t99.5 41.5t124 19q199 0 314.5 -115.5t115.5 -314.5v-379 q0 -68 7.5 -129.5t15.5 -88.5l8 -28h-62q-20 92 -20 184h-11q-7 -9 -19.5 -23.5t-53.5 -51.5t-86 -65.5t-113 -51.5t-137 -23q-194 0 -302 93.5t-108 244.5zM154 307q0 -134 91.5 -215.5t256.5 -81.5q69 0 136.5 24.5t114.5 59t84 69t55 59.5l19 24v246q-8 5 -23 12.5 t-61.5 26.5t-92.5 34t-110.5 27t-121.5 12q-165 0 -256.5 -81.5t-91.5 -215.5zM232 1208l317 389h52l317 -389h-61l-277 338h-10l-277 -338h-61z" />
<glyph unicode="&#xe3;" horiz-adv-x="1146" d="M92 307q0 151 108 244.5t302 93.5q91 0 193.5 -25.5t158.5 -51.5l57 -25v82q0 183 -99 286t-269 103q-57 0 -112 -16t-92.5 -38.5t-66.5 -45t-43 -38.5l-14 -16l-31 21q5 7 15.5 19t46 42t74 52.5t99.5 41.5t124 19q199 0 314.5 -115.5t115.5 -314.5v-379 q0 -68 7.5 -129.5t15.5 -88.5l8 -28h-62q-20 92 -20 184h-11q-7 -9 -19.5 -23.5t-53.5 -51.5t-86 -65.5t-113 -51.5t-137 -23q-194 0 -302 93.5t-108 244.5zM154 307q0 -134 91.5 -215.5t256.5 -81.5q69 0 136.5 24.5t114.5 59t84 69t55 59.5l19 24v246q-8 5 -23 12.5 t-61.5 26.5t-92.5 34t-110.5 27t-121.5 12q-165 0 -256.5 -81.5t-91.5 -215.5zM236 1280q1 8 4 22t16 49.5t30.5 62.5t50.5 49t73 22q38 0 82.5 -27t79 -60t75 -60t70.5 -27q32 0 58 16t41 38.5t25.5 44.5t14.5 38l4 16l31 -10q-1 -8 -4 -22t-16 -49.5t-30.5 -62.5 t-50.5 -49t-73 -22q-38 0 -82.5 27t-79 60t-75 60t-70.5 27q-32 0 -58.5 -16t-41.5 -38.5t-25.5 -44.5t-14.5 -38l-4 -16z" />
<glyph unicode="&#xe4;" horiz-adv-x="1157" d="M92 307q0 151 108 244.5t302 93.5q91 0 193.5 -25.5t158.5 -51.5l57 -25v82q0 183 -99 286t-269 103q-57 0 -112 -16t-92.5 -38.5t-66.5 -45t-43 -38.5l-14 -16l-31 21q5 7 15.5 19t46 42t74 52.5t99.5 41.5t124 19q199 0 314.5 -115.5t115.5 -314.5v-379 q0 -68 7.5 -129.5t15.5 -88.5l8 -28h-62q-20 92 -20 184h-11q-7 -9 -19.5 -23.5t-53.5 -51.5t-86 -65.5t-113 -51.5t-137 -23q-194 0 -302 93.5t-108 244.5zM154 307q0 -134 91.5 -215.5t256.5 -81.5q69 0 136.5 24.5t114.5 59t84 69t55 59.5l19 24v246q-8 5 -23 12.5 t-61.5 26.5t-92.5 34t-110.5 27t-121.5 12q-165 0 -256.5 -81.5t-91.5 -215.5zM297 1352q0 23 19 42t42 19t42.5 -19t19.5 -42t-19.5 -42.5t-42.5 -19.5t-42 19.5t-19 42.5zM686 1352q0 23 19 42t42 19t42.5 -19t19.5 -42t-19.5 -42.5t-42.5 -19.5t-42 19.5t-19 42.5z" />
<glyph unicode="&#xe5;" horiz-adv-x="1157" d="M92 307q0 151 108 244.5t302 93.5q91 0 193.5 -25.5t158.5 -51.5l57 -25v82q0 183 -99 286t-269 103q-57 0 -112 -16t-92.5 -38.5t-66.5 -45t-43 -38.5l-14 -16l-31 21q5 7 15.5 19t46 42t74 52.5t99.5 41.5t124 19q199 0 314.5 -115.5t115.5 -314.5v-379 q0 -68 7.5 -129.5t15.5 -88.5l8 -28h-62q-20 92 -20 184h-11q-7 -9 -19.5 -23.5t-53.5 -51.5t-86 -65.5t-113 -51.5t-137 -23q-194 0 -302 93.5t-108 244.5zM154 307q0 -134 91.5 -215.5t256.5 -81.5q69 0 136.5 24.5t114.5 59t84 69t55 59.5l19 24v246q-8 5 -23 12.5 t-61.5 26.5t-92.5 34t-110.5 27t-121.5 12q-165 0 -256.5 -81.5t-91.5 -215.5zM348 1434q0 93 68.5 159t167.5 66t167 -66t68 -159t-68 -159.5t-167 -66.5t-167.5 66.5t-68.5 159.5zM399 1434q0 -76 54.5 -130.5t130.5 -54.5t130 54t54 131q0 76 -54 130t-130 54 q-77 0 -131 -54t-54 -130z" />
<glyph unicode="&#xe6;" horiz-adv-x="1904" d="M92 307q0 151 108 244.5t302 93.5q91 0 193.5 -25.5t158.5 -51.5l57 -25v82q0 183 -99 286t-269 103q-57 0 -112 -16t-92.5 -38.5t-66.5 -45t-43 -38.5l-14 -16l-31 21q5 7 15.5 19t46 42t74 52.5t99.5 41.5t124 19q75 0 138 -17.5t103 -45.5t71 -62t46.5 -68t25.5 -62 t13 -46l2 -17h10q48 146 152 232t258 86q189 0 319.5 -145.5t130.5 -377.5q0 -9 -2.5 -19t-5.5 -15l-2 -6h-829q0 -225 114 -353.5t295 -128.5q50 0 97 12t82 31t65.5 42t51 45.5t35 41.5t21.5 31l7 12l31 -20q-5 -10 -15 -25.5t-45.5 -56.5t-77 -72t-110 -56.5 t-142.5 -25.5q-169 0 -275 85.5t-155 232.5h-10q-3 -7 -8.5 -18.5t-25 -44.5t-43 -63t-61.5 -66.5t-80.5 -63t-100.5 -44.5t-121 -18q-194 0 -302 93.5t-108 244.5zM154 307q0 -138 93.5 -217.5t254.5 -79.5q54 0 106 17t91.5 44t75 59.5t59.5 65.5t42 60t26 44l9 17v175 q-8 5 -23 12.5t-61.5 26.5t-92.5 34t-110.5 27t-121.5 12q-165 0 -256.5 -81.5t-91.5 -215.5zM973 532h778q0 215 -114.5 348.5t-274.5 133.5t-274.5 -133.5t-114.5 -348.5z" />
<glyph unicode="&#xe7;" horiz-adv-x="1085" d="M102 512q0 155 68 280t185 194t259 69q69 0 134.5 -20t109.5 -48.5t78.5 -57.5t51.5 -49l16 -20l-31 -20q-5 7 -15.5 19t-46 42t-74 52.5t-99.5 41.5t-124 19q-188 0 -319 -141.5t-131 -360.5t131 -360.5t319 -141.5q74 0 143 22t113.5 53.5t78.5 63.5t49 54l16 22 l30 -20q-5 -9 -16 -24.5t-48.5 -55t-81 -70t-115 -57t-148.5 -29.5l-41 -112q5 0 14 -0.5t34.5 -4.5t48.5 -11t51.5 -22.5t49 -36t34.5 -54.5t14 -76q0 -88 -67 -146.5t-179 -58.5q-37 0 -72 8.5t-58 20.5t-41 24t-26 20l-8 9l21 31q8 -8 23 -20t63 -32t98 -20 q83 0 133.5 46.5t50.5 117.5t-50.5 117.5t-133.5 46.5h-62l52 153q-202 8 -342 162t-140 381z" />
<glyph unicode="&#xe8;" horiz-adv-x="1177" d="M102 512q0 116 39.5 218t106.5 173t157 111.5t189 40.5q98 0 188.5 -40.5t157 -109.5t106 -166.5t39.5 -206.5q0 -9 -2.5 -19t-4.5 -15l-3 -6h-911q0 -135 61 -246t164 -173.5t225 -62.5q74 0 143 22t113.5 53.5t78.5 63.5t49 54l16 22l30 -20q-3 -5 -9 -13.5t-26.5 -33 t-43.5 -47t-61 -49.5t-79 -46.5t-96.5 -33t-114.5 -13.5q-142 0 -259 69t-185 194t-68 280zM164 532h860q0 101 -35.5 191.5t-95 153.5t-137.5 100t-162 37t-162 -37t-137.5 -100t-95 -153.5t-35.5 -191.5zM328 1598h72l215 -390h-41z" />
<glyph unicode="&#xe9;" horiz-adv-x="1177" d="M102 512q0 116 39.5 218t106.5 173t157 111.5t189 40.5q98 0 188.5 -40.5t157 -109.5t106 -166.5t39.5 -206.5q0 -9 -2.5 -19t-4.5 -15l-3 -6h-911q0 -135 61 -246t164 -173.5t225 -62.5q74 0 143 22t113.5 53.5t78.5 63.5t49 54l16 22l30 -20q-3 -5 -9 -13.5t-26.5 -33 t-43.5 -47t-61 -49.5t-79 -46.5t-96.5 -33t-114.5 -13.5q-142 0 -259 69t-185 194t-68 280zM164 532h860q0 101 -35.5 191.5t-95 153.5t-137.5 100t-162 37t-162 -37t-137.5 -100t-95 -153.5t-35.5 -191.5zM594 1208l215 389h72l-246 -389h-41z" />
<glyph unicode="&#xea;" horiz-adv-x="1177" d="M102 512q0 116 39.5 218t106.5 173t157 111.5t189 40.5q98 0 188.5 -40.5t157 -109.5t106 -166.5t39.5 -206.5q0 -9 -2.5 -19t-4.5 -15l-3 -6h-911q0 -135 61 -246t164 -173.5t225 -62.5q74 0 143 22t113.5 53.5t78.5 63.5t49 54l16 22l30 -20q-3 -5 -9 -13.5t-26.5 -33 t-43.5 -47t-61 -49.5t-79 -46.5t-96.5 -33t-114.5 -13.5q-142 0 -259 69t-185 194t-68 280zM164 532h860q0 101 -35.5 191.5t-95 153.5t-137.5 100t-162 37t-162 -37t-137.5 -100t-95 -153.5t-35.5 -191.5zM262 1208l317 389h52l317 -389h-61l-277 338h-10l-277 -338h-61z " />
<glyph unicode="&#xeb;" horiz-adv-x="1177" d="M102 512q0 116 39.5 218t106.5 173t157 111.5t189 40.5q98 0 188.5 -40.5t157 -109.5t106 -166.5t39.5 -206.5q0 -9 -2.5 -19t-4.5 -15l-3 -6h-911q0 -135 61 -246t164 -173.5t225 -62.5q74 0 143 22t113.5 53.5t78.5 63.5t49 54l16 22l30 -20q-3 -5 -9 -13.5t-26.5 -33 t-43.5 -47t-61 -49.5t-79 -46.5t-96.5 -33t-114.5 -13.5q-142 0 -259 69t-185 194t-68 280zM164 532h860q0 101 -35.5 191.5t-95 153.5t-137.5 100t-162 37t-162 -37t-137.5 -100t-95 -153.5t-35.5 -191.5zM338 1372q0 23 19 42.5t42 19.5t42.5 -19.5t19.5 -42.5t-19.5 -42 t-42.5 -19t-42 19t-19 42zM727 1372q0 23 19 42.5t42 19.5t42.5 -19.5t19.5 -42.5t-19.5 -42t-42.5 -19t-42 19t-19 42z" />
<glyph unicode="&#xec;" horiz-adv-x="460" d="M-41 1597h72l215 -389h-41zM195 0v1024h61v-1024h-61z" />
<glyph unicode="&#xed;" horiz-adv-x="460" d="M205 0v1024h61v-1024h-61zM215 1208l215 389h72l-246 -389h-41z" />
<glyph unicode="&#xee;" horiz-adv-x="522" d="M-82 1208l318 389h51l317 -389h-61l-277 338h-10l-276 -338h-62zM229 0v1024h62v-1024h-62z" />
<glyph unicode="&#xef;" horiz-adv-x="471" d="M-41 1372q0 23 19 42.5t42 19.5t42.5 -19.5t19.5 -42.5t-19.5 -42t-42.5 -19t-42 19t-19 42zM205 0v1024h61v-1024h-61zM348 1372q0 23 19.5 42.5t42.5 19.5t42 -19.5t19 -42.5t-19 -42t-42 -19t-42.5 19t-19.5 42z" />
<glyph unicode="&#xf0;" horiz-adv-x="1218" d="M82 471q0 215 143.5 358.5t358.5 143.5q80 0 153 -22t119.5 -53.5t81.5 -63.5t50 -54l16 -22h10q-26 115 -76.5 219.5t-104.5 171.5t-104 117.5t-83 73.5l-32 22l-122 -174l-41 31l122 174l-194 153l31 41l194 -153l123 163l43 -30l-125 -164q9 -6 25 -17t61.5 -51.5 t87 -87t92.5 -123t87.5 -160t61.5 -197.5t25 -235q0 -257 -141 -410t-360 -153q-215 0 -358.5 143.5t-143.5 358.5zM143 471q0 -198 127.5 -329.5t313.5 -131.5t313 131.5t127 329.5t-127 329.5t-313 131.5t-313.5 -131.5t-127.5 -329.5z" />
<glyph unicode="&#xf1;" horiz-adv-x="1280" d="M174 1024h62q20 -92 20 -184h10q7 9 19.5 23.5t54 51.5t86 65.5t113 51.5t137.5 23q191 0 305.5 -111t114.5 -289v-655h-62v655q0 154 -102 256.5t-256 102.5q-69 0 -136.5 -24.5t-114.5 -59t-84.5 -69t-56.5 -59.5l-18 -24v-778h-61v778q0 68 -7.5 129.5t-15.5 88.5z M328 1300q1 8 4 22t16 49.5t30.5 62.5t50.5 49t73 22q38 0 82.5 -27t79 -60t75 -60t70.5 -27q32 0 58.5 16t41.5 38.5t25.5 44.5t14.5 38l4 16l30 -10q-1 -8 -4 -22t-16 -49.5t-30.5 -62.5t-50.5 -49t-73 -22q-38 0 -82.5 27t-79 60t-75 60t-70.5 27q-32 0 -58 -16 t-41 -38.5t-25.5 -44.5t-14.5 -38l-4 -16z" />
<glyph unicode="&#xf2;" horiz-adv-x="1228" d="M102 512q0 155 68 280t185 194t259 69t259 -69t185 -194t68 -280t-68 -280t-185 -194t-259 -69t-259 69t-185 194t-68 280zM164 512q0 -219 131 -360.5t319 -141.5q92 0 174.5 37t143.5 102t97 159.5t36 203.5t-36 203.5t-97 159.5t-143.5 102t-174.5 37 q-188 0 -319 -141.5t-131 -360.5zM348 1618h72l215 -390h-41z" />
<glyph unicode="&#xf3;" horiz-adv-x="1228" d="M102 512q0 155 68 280t185 194t259 69t259 -69t185 -194t68 -280t-68 -280t-185 -194t-259 -69t-259 69t-185 194t-68 280zM164 512q0 -219 131 -360.5t319 -141.5q92 0 174.5 37t143.5 102t97 159.5t36 203.5t-36 203.5t-97 159.5t-143.5 102t-174.5 37 q-188 0 -319 -141.5t-131 -360.5zM553 1229l215 389h72l-246 -389h-41z" />
<glyph unicode="&#xf4;" horiz-adv-x="1228" d="M102 512q0 155 68 280t185 194t259 69t259 -69t185 -194t68 -280t-68 -280t-185 -194t-259 -69t-259 69t-185 194t-68 280zM164 512q0 -219 131 -360.5t319 -141.5q92 0 174.5 37t143.5 102t97 159.5t36 203.5t-36 203.5t-97 159.5t-143.5 102t-174.5 37 q-188 0 -319 -141.5t-131 -360.5zM272 1228l317 389h52l317 -389h-61l-277 338h-10l-277 -338h-61z" />
<glyph unicode="&#xf5;" horiz-adv-x="1228" d="M102 512q0 155 68 280t185 194t259 69t259 -69t185 -194t68 -280t-68 -280t-185 -194t-259 -69t-259 69t-185 194t-68 280zM164 512q0 -219 131 -360.5t319 -141.5q92 0 174.5 37t143.5 102t97 159.5t36 203.5t-36 203.5t-97 159.5t-143.5 102t-174.5 37 q-188 0 -319 -141.5t-131 -360.5zM297 1300q1 8 4 22t16 49.5t30.5 62.5t50.5 49t73 22q38 0 82.5 -27t79 -60t75 -60t70.5 -27q32 0 58.5 16t41.5 38.5t25.5 45t14.5 38.5l4 16l30 -10q-1 -8 -4 -22t-16 -49.5t-30.5 -62.5t-50.5 -49t-73 -22q-38 0 -82.5 27t-79 60t-75 60 t-70.5 27q-32 0 -58 -16t-41 -38.5t-25.5 -45t-14.5 -38.5l-4 -16z" />
<glyph unicode="&#xf6;" horiz-adv-x="1228" d="M102 512q0 155 68 280t185 194t259 69t259 -69t185 -194t68 -280t-68 -280t-185 -194t-259 -69t-259 69t-185 194t-68 280zM164 512q0 -219 131 -360.5t319 -141.5q92 0 174.5 37t143.5 102t97 159.5t36 203.5t-36 203.5t-97 159.5t-143.5 102t-174.5 37 q-188 0 -319 -141.5t-131 -360.5zM338 1373q0 23 19 42t42 19t42.5 -19t19.5 -42t-19.5 -42.5t-42.5 -19.5t-42 19.5t-19 42.5zM727 1373q0 23 19 42t42 19t42.5 -19t19.5 -42t-19.5 -42.5t-42.5 -19.5t-42 19.5t-19 42.5z" />
<glyph unicode="&#xf7;" horiz-adv-x="983" d="M82 696v52h819v-52h-819zM430 307q0 23 19.5 42.5t42.5 19.5t42 -19.5t19 -42.5t-19 -42t-42 -19t-42.5 19t-19.5 42zM430 1137q0 23 19.5 42t42.5 19t42 -19t19 -42t-19 -42.5t-42 -19.5t-42.5 19.5t-19.5 42.5z" />
<glyph unicode="&#xf8;" horiz-adv-x="1249" d="M82 0l149 154q-118 147 -118 358q0 155 68 280t185 194t259 69q101 0 192.5 -38t159.5 -106l129 133h61l-161 -163q131 -150 131 -369q0 -155 -68 -280t-185 -194t-259 -69q-106 0 -200.5 39.5t-164.5 112.5l-119 -121h-59zM174 512q0 -182 96 -319l670 681 q-130 140 -315 140q-92 0 -174.5 -37t-143.5 -102t-97 -159.5t-36 -203.5zM297 160q134 -150 328 -150q188 0 319 141.5t131 360.5q0 192 -106 330z" />
<glyph unicode="&#xf9;" d="M205 369v655h61v-655q0 -154 102.5 -256.5t256.5 -102.5q69 0 136.5 24.5t114.5 59t84 69t56 59.5l18 24v778h62v-778q0 -68 7.5 -129.5t14.5 -88.5l8 -28h-61q-21 92 -21 184h-10q-7 -9 -19.5 -23.5t-53.5 -51.5t-86 -65.5t-113 -51.5t-137 -23q-191 0 -305.5 111 t-114.5 289zM420 1618h72l215 -390h-41z" />
<glyph unicode="&#xfa;" d="M205 369v655h61v-655q0 -154 102.5 -256.5t256.5 -102.5q69 0 136.5 24.5t114.5 59t84 69t56 59.5l18 24v778h62v-778q0 -68 7.5 -129.5t14.5 -88.5l8 -28h-61q-21 92 -21 184h-10q-7 -9 -19.5 -23.5t-53.5 -51.5t-86 -65.5t-113 -51.5t-137 -23q-191 0 -305.5 111 t-114.5 289zM604 1229l215 389h72l-246 -389h-41z" />
<glyph unicode="&#xfb;" d="M205 369v655h61v-655q0 -154 102.5 -256.5t256.5 -102.5q69 0 136.5 24.5t114.5 59t84 69t56 59.5l18 24v778h62v-778q0 -68 7.5 -129.5t14.5 -88.5l8 -28h-61q-21 92 -21 184h-10q-7 -9 -19.5 -23.5t-53.5 -51.5t-86 -65.5t-113 -51.5t-137 -23q-191 0 -305.5 111 t-114.5 289zM324 1228l317 389h52l317 -389h-61l-277 338h-10l-277 -338h-61z" />
<glyph unicode="&#xfc;" d="M205 369v655h61v-655q0 -154 102.5 -256.5t256.5 -102.5q69 0 136.5 24.5t114.5 59t84 69t56 59.5l18 24v778h62v-778q0 -68 7.5 -129.5t14.5 -88.5l8 -28h-61q-21 92 -21 184h-10q-7 -9 -19.5 -23.5t-53.5 -51.5t-86 -65.5t-113 -51.5t-137 -23q-191 0 -305.5 111 t-114.5 289zM389 1372q0 23 19.5 42.5t42.5 19.5t42 -19.5t19 -42.5t-19 -42t-42 -19t-42.5 19t-19.5 42zM778 1372q0 23 19.5 42.5t42.5 19.5t42 -19.5t19 -42.5t-19 -42t-42 -19t-42.5 19t-19.5 42z" />
<glyph unicode="&#xfd;" d="M205 389v635h61v-635q0 -154 102.5 -256t256.5 -102q69 0 136.5 24t114.5 58.5t84 69.5t56 59l18 24v758h62v-1004q0 -208 -135.5 -339.5t-356.5 -131.5q-74 0 -141.5 20t-111 48.5t-75.5 57.5t-46 49l-15 20l31 20q5 -7 14 -19t41.5 -42t70.5 -52.5t100.5 -41.5 t131.5 -19q192 0 311 119t119 311v175h-10q-6 -8 -18 -22t-51.5 -49.5t-83 -62.5t-110.5 -49t-136 -22q-191 0 -305.5 110.5t-114.5 288.5zM604 1228l215 389h72l-246 -389h-41z" />
<glyph unicode="&#xfe;" d="M205 -410v1844h61v-584h10q6 8 18 22t52 49.5t83 62.5t110.5 49t136.5 22q224 0 373 -153.5t149 -389.5t-149 -389.5t-373 -153.5q-69 0 -135.5 21t-112 51t-81.5 60.5t-53 51.5l-18 21h-10v-584h-61zM266 246q7 -10 19.5 -25.5t54 -56.5t86 -72t113 -56.5t137.5 -25.5 q127 0 232 63t167 178.5t62 260.5t-62 260.5t-167 178.5t-232 63q-69 0 -136.5 -24.5t-114.5 -59t-84.5 -69t-56.5 -59.5l-18 -24v-532z" />
<glyph unicode="&#xff;" d="M205 389v635h61v-635q0 -154 102.5 -256t256.5 -102q69 0 136.5 24t114.5 58.5t84 69.5t56 59l18 24v758h62v-1004q0 -208 -135.5 -339.5t-356.5 -131.5q-74 0 -141.5 20t-111 48.5t-75.5 57.5t-46 49l-15 20l31 20q5 -7 14 -19t41.5 -42t70.5 -52.5t100.5 -41.5 t131.5 -19q192 0 311 119t119 311v175h-10q-6 -8 -18 -22t-51.5 -49.5t-83 -62.5t-110.5 -49t-136 -22q-191 0 -305.5 110.5t-114.5 288.5zM389 1393q0 23 19.5 42t42.5 19t42 -19t19 -42t-19 -42.5t-42 -19.5t-42.5 19.5t-19.5 42.5zM778 1393q0 23 19.5 42t42.5 19t42 -19 t19 -42t-19 -42.5t-42 -19.5t-42.5 19.5t-19.5 42.5z" />
<glyph unicode="&#x152;" horiz-adv-x="1996" d="M133 717q0 212 89 375.5t249.5 252.5t368.5 89h1054l-10 -41h-747v-635h532l-10 -41h-522v-676h798v-41h-1095q-208 0 -368.5 89t-249.5 252.5t-89 375.5zM195 717q0 -305 179.5 -490.5t465.5 -185.5h235v1352h-235q-286 0 -465.5 -185.5t-179.5 -490.5z" />
<glyph unicode="&#x153;" horiz-adv-x="1976" d="M102 512q0 248 133.5 395.5t337.5 147.5q319 0 437 -318h8q54 147 158 232.5t258 85.5q189 0 319.5 -145.5t130.5 -377.5q0 -9 -2.5 -19t-5.5 -15l-2 -6h-830q0 -223 117.5 -352.5t292.5 -129.5q69 0 131 22t101.5 53.5t69.5 63.5t43 54l13 22l31 -20q-5 -10 -15 -25.5 t-45.5 -56.5t-76.5 -72t-109.5 -56.5t-142.5 -25.5q-318 0 -436 318h-8q-118 -318 -437 -318q-204 0 -337.5 147.5t-133.5 395.5zM164 512q0 -231 117 -366.5t292 -135.5q85 0 159 33t130 94.5t88.5 158t32.5 216.5t-32.5 216.5t-88.5 158t-130 94.5t-159 33 q-175 0 -292 -135.5t-117 -366.5zM1044 532h779q0 215 -114.5 348.5t-274.5 133.5q-77 0 -147.5 -32.5t-124.5 -92.5t-86 -152.5t-32 -204.5z" />
<glyph unicode="&#x178;" horiz-adv-x="1249" d="M41 1434h72l518 -881h8l518 881h51l-553 -942v-492h-61v492zM369 1761q0 23 19 42.5t42 19.5t42.5 -19.5t19.5 -42.5t-19.5 -42t-42.5 -19t-42 19t-19 42zM758 1761q0 23 19 42.5t42 19.5t42.5 -19.5t19.5 -42.5t-19.5 -42t-42.5 -19t-42 19t-19 42z" />
<glyph unicode="&#x2c6;" horiz-adv-x="849" d="M82 1167l317 389h52l317 -389h-61l-277 338h-10l-277 -338h-61z" />
<glyph unicode="&#x2dc;" horiz-adv-x="819" d="M82 1280q1 8 4 22t16 49.5t30.5 62.5t50.5 49t73 22q38 0 82.5 -27t79 -60t75 -60t70.5 -27q32 0 58.5 16t41.5 38.5t25.5 44.5t14.5 38l4 16l30 -10q-1 -8 -4 -22t-16 -49.5t-30.5 -62.5t-50.5 -49t-73 -22q-38 0 -82.5 27t-79 60t-75 60t-70.5 27q-32 0 -58 -16 t-41 -38.5t-25.5 -44.5t-14.5 -38l-4 -16z" />
<glyph unicode="&#x2000;" horiz-adv-x="1003" />
<glyph unicode="&#x2001;" horiz-adv-x="2007" />
<glyph unicode="&#x2002;" horiz-adv-x="1003" />
<glyph unicode="&#x2003;" horiz-adv-x="2007" />
<glyph unicode="&#x2004;" horiz-adv-x="669" />
<glyph unicode="&#x2005;" horiz-adv-x="501" />
<glyph unicode="&#x2006;" horiz-adv-x="334" />
<glyph unicode="&#x2007;" horiz-adv-x="334" />
<glyph unicode="&#x2008;" horiz-adv-x="250" />
<glyph unicode="&#x2009;" horiz-adv-x="401" />
<glyph unicode="&#x200a;" horiz-adv-x="111" />
<glyph unicode="&#x2010;" horiz-adv-x="1003" d="M82 696v52h840v-52h-840z" />
<glyph unicode="&#x2011;" horiz-adv-x="1003" d="M82 696v52h840v-52h-840z" />
<glyph unicode="&#x2012;" horiz-adv-x="1003" d="M82 696v52h840v-52h-840z" />
<glyph unicode="&#x2013;" horiz-adv-x="1249" d="M82 655v41h1085v-41h-1085z" />
<glyph unicode="&#x2014;" horiz-adv-x="1576" d="M82 655v41h1413v-41h-1413z" />
<glyph unicode="&#x2018;" horiz-adv-x="389" d="M133 1198q0 49 16 93t38.5 72.5t45 50t38.5 30.5l16 10l20 -31q-5 -3 -12.5 -8.5t-26.5 -23.5t-34 -37t-27 -47.5t-12 -57.5q23 0 42 -19t19 -42t-19 -42.5t-42 -19.5q-24 0 -43 21t-19 51z" />
<glyph unicode="&#x2019;" horiz-adv-x="389" d="M82 1157q5 3 12.5 8.5t27 23.5t34.5 37t27 47.5t12 57.5q-23 0 -42.5 19.5t-19.5 42.5t19.5 42t42.5 19q24 0 42.5 -21t18.5 -51q0 -49 -16 -93t-38.5 -72.5t-45 -50t-38.5 -30.5l-16 -10z" />
<glyph unicode="&#x201a;" horiz-adv-x="389" d="M82 -195q5 3 12.5 8.5t27 23.5t34.5 37.5t27 48t12 57.5q-23 0 -42.5 19t-19.5 42t19.5 42t42.5 19q24 0 42.5 -20.5t18.5 -50.5q0 -49 -16 -93t-38.5 -72.5t-45 -50t-38.5 -31.5l-16 -9z" />
<glyph unicode="&#x201c;" horiz-adv-x="675" d="M133 1198q0 49 16 93t38.5 72.5t45 50t38.5 30.5l16 10l20 -31q-5 -3 -12.5 -8.5t-26.5 -23.5t-34 -37t-27 -47.5t-12 -57.5q23 0 42 -19t19 -42t-19 -42.5t-42 -19.5q-24 0 -43 21t-19 51zM420 1198q0 49 16 93t38.5 72.5t44.5 50t38 30.5l16 10l21 -31 q-5 -3 -12.5 -8.5t-27 -23.5t-34.5 -37t-27 -47.5t-12 -57.5q23 0 42.5 -19t19.5 -42t-19.5 -42.5t-42.5 -19.5q-24 0 -42.5 21t-18.5 51z" />
<glyph unicode="&#x201d;" horiz-adv-x="675" d="M82 1157q5 3 12.5 8.5t27 23.5t34.5 37t27 47.5t12 57.5q-23 0 -42.5 19.5t-19.5 42.5t19.5 42t42.5 19q24 0 42.5 -21t18.5 -51q0 -49 -16 -93t-38.5 -72.5t-45 -50t-38.5 -30.5l-16 -10zM369 1157q5 3 12.5 8.5t26.5 23.5t34 37t27 47.5t12 57.5q-23 0 -42 19.5 t-19 42.5t19 42t42 19q24 0 43 -21t19 -51q0 -49 -16 -93t-38.5 -72.5t-45 -50t-38.5 -30.5l-16 -10z" />
<glyph unicode="&#x201e;" horiz-adv-x="624" d="M82 -195q5 3 12.5 8.5t27 23.5t34.5 37.5t27 48t12 57.5q-23 0 -42.5 19t-19.5 42t19.5 42t42.5 19q24 0 42.5 -20.5t18.5 -50.5q0 -49 -16 -93t-38.5 -72.5t-45 -50t-38.5 -31.5l-16 -9zM369 -195q5 3 12.5 8.5t26.5 23.5t34 37.5t27 48t12 57.5q-23 0 -42 19t-19 42 t19 42t42 19q24 0 43 -20.5t19 -50.5q0 -49 -16 -93t-38.5 -72.5t-45 -50t-38.5 -31.5l-16 -9z" />
<glyph unicode="&#x2022;" horiz-adv-x="655" d="M174 707q0 61 46 107t108 46t107.5 -46t45.5 -107q0 -62 -46 -108t-107 -46q-62 0 -108 46.5t-46 107.5z" />
<glyph unicode="&#x2026;" horiz-adv-x="1249" d="M133 41q0 23 19.5 42t42.5 19t42 -19t19 -42t-19 -42t-42 -19t-42.5 19t-19.5 42zM563 41q0 23 19.5 42t42.5 19t42 -19t19 -42t-19 -42t-42 -19t-42.5 19t-19.5 42zM993 41q0 23 19.5 42t42.5 19t42 -19t19 -42t-19 -42t-42 -19t-42.5 19t-19.5 42z" />
<glyph unicode="&#x202f;" horiz-adv-x="401" />
<glyph unicode="&#x2039;" horiz-adv-x="634" d="M61 512l451 481l41 -30l-420 -447v-8l420 -447l-41 -30z" />
<glyph unicode="&#x203a;" horiz-adv-x="634" d="M82 61l420 447v8l-420 447l41 30l450 -481l-450 -481z" />
<glyph unicode="&#x205f;" horiz-adv-x="501" />
<glyph unicode="&#x20ac;" horiz-adv-x="1597" d="M61 522v41h195q-10 93 -10 154q0 27 2.5 65.5t5.5 63.5l2 24h-195v41h205q42 167 131.5 292t232 198.5t322.5 73.5q77 0 149.5 -16.5t126 -42.5t100.5 -58t79 -63.5t54.5 -57.5t32.5 -43l11 -16l-30 -21q-7 11 -20 30t-61 66.5t-103.5 84t-147 66.5t-191.5 30 q-238 0 -399 -142t-225 -381h737v-41h-748q-10 -92 -10 -153q0 -27 2.5 -65.5t4.5 -63.5l3 -25h748v-41h-737q55 -237 219.5 -379.5t404.5 -142.5q81 0 155.5 16.5t128.5 42.5t100.5 57.5t76.5 63.5t51.5 58t31.5 42l9 17l31 -21q-3 -7 -10 -18t-32.5 -44t-55 -63t-80 -66.5 t-107 -63t-135 -44.5t-164.5 -18q-135 0 -254 44.5t-205.5 122t-145 179t-81.5 217.5h-205z" />
<glyph unicode="&#x2122;" horiz-adv-x="1832" d="M41 1393v41h645l-10 -41h-287v-697h-61v697h-287zM819 696v738h62l348 -553h10l358 553h62v-738h-62v656h-10l-348 -543h-31l-338 543h-10v-656h-41z" />
<glyph unicode="&#x25fc;" horiz-adv-x="1024" d="M0 0v1024h1024v-1024h-1024z" />
</font>
</defs>
</svg>
